<svg width="0" height="0" class="hidden">
  <symbol xmlns="http://www.w3.org/2000/svg" version="1.1" xmlns:xlink="http://www.w3.org/1999/xlink" viewBox="0 0 128px 128px" id="archive">
    <g>
      <path fill="#000000" d="M 75.5,-0.5 C 77.1667,-0.5 78.8333,-0.5 80.5,-0.5C 86.8287,5.99617 92.9953,12.6628 99,19.5C 99.387,23.165 97.887,25.9984 94.5,28C 96.6079,28.3599 98.6079,29.0266 100.5,30C 107.667,37.1667 114.833,44.3333 122,51.5C 122.5,61.828 122.666,72.1613 122.5,82.5C 120.833,82.5 119.167,82.5 117.5,82.5C 117.5,74.1667 117.5,65.8333 117.5,57.5C 81.5,57.5 45.5,57.5 9.5,57.5C 9.5,79.1667 9.5,100.833 9.5,122.5C 45.5,122.5 81.5,122.5 117.5,122.5C 117.334,114.16 117.5,105.827 118,97.5C 119.049,96.4829 120.216,96.3162 121.5,97C 122.486,107.084 122.819,117.251 122.5,127.5C 83.1667,127.5 43.8333,127.5 4.5,127.5C 4.33336,102.164 4.50003,76.8311 5,51.5C 12.1667,44.3333 19.3333,37.1667 26.5,30C 33.3938,28.7403 40.3938,28.0737 47.5,28C 57.0356,18.6317 66.3689,9.13171 75.5,-0.5 Z M 77.5,6.5 C 82.6313,11.1302 87.6313,15.9635 92.5,21C 86.1667,27.3333 79.8333,33.6667 73.5,40C 66.8333,40.6667 60.1667,40.6667 53.5,40C 51.3619,38.5784 50.1953,36.745 50,34.5C 59.3689,25.2984 68.5356,15.965 77.5,6.5 Z M 30.5,34.5 C 34.1667,34.5 37.8333,34.5 41.5,34.5C 41.393,36.9032 42.393,38.7365 44.5,40C 41.5184,40.498 38.5184,40.6646 35.5,40.5C 35.1412,42.7659 35.8078,44.5993 37.5,46C 54.8333,46.6667 72.1667,46.6667 89.5,46C 91.1922,44.5993 91.8588,42.7659 91.5,40.5C 82.2486,42.0138 80.9152,40.1804 87.5,35C 90.5,34.3333 93.5,34.3333 96.5,35C 101.833,40.3333 107.167,45.6667 112.5,51C 79.8333,51.6667 47.1667,51.6667 14.5,51C 20.0363,45.6314 25.3697,40.1314 30.5,34.5 Z"></path>
    </g>
    <g>
      <path fill="#000000" d="M 57.5,67.5 C 79.662,67.1602 88.4953,77.8268 84,99.5C 76.7264,111.147 66.5598,114.647 53.5,110C 42.8842,103.851 39.0509,94.6843 42,82.5C 45.1058,75.2253 50.2724,70.2253 57.5,67.5 Z M 58.5,73.5 C 73.3137,72.8129 80.147,79.8129 79,94.5C 76.2413,101.478 71.0747,105.478 63.5,106.5C 48.729,103.218 44.229,94.551 50,80.5C 52.4412,77.5464 55.2745,75.2131 58.5,73.5 Z"></path>
    </g>
    <g>
      <path fill="#000000" d="M 68.5,81.5 C 70.1992,81.3398 71.8659,81.5065 73.5,82C 74.5171,83.0495 74.6838,84.2161 74,85.5C 70.5,89 67,92.5 63.5,96C 58.197,96.238 54.5303,93.738 52.5,88.5C 53.384,86.058 55.0507,85.2246 57.5,86C 58.6667,87.1667 59.8333,88.3333 61,89.5C 63.705,86.9638 66.205,84.2971 68.5,81.5 Z"></path>
    </g>
    <g>
      <path fill="#000000" d="M 118.5,86.5 C 122.068,86.7593 123.401,88.7593 122.5,92.5C 120.833,92.5 119.167,92.5 117.5,92.5C 117.325,90.3792 117.659,88.3792 118.5,86.5 Z"></path>
    </g>
  </symbol>
  <symbol xmlns="http://www.w3.org/2000/svg" version="1.1" xmlns:xlink="http://www.w3.org/1999/xlink" viewBox="0 0 128px 128px" id="bible">
    <g>
      <path fill="#ffe370" d="M 38.5,-0.5 C 40.1667,-0.5 41.8333,-0.5 43.5,-0.5C 46.1288,2.63064 48.9621,5.63064 52,8.5C 53.261,14.0798 51.0943,15.9132 45.5,14C 41.7297,10.9029 38.7297,7.23621 36.5,3C 36.9783,1.69736 37.645,0.530694 38.5,-0.5 Z"></path>
    </g>
    <g>
      <path fill="#ffe470" d="M 60.5,-0.5 C 61.5,-0.5 62.5,-0.5 63.5,-0.5C 63.5,4.5 63.5,9.5 63.5,14.5C 62.1779,14.67 61.0113,14.3366 60,13.5C 59.2266,8.74815 59.3932,4.08148 60.5,-0.5 Z"></path>
    </g>
    <g>
      <path fill="#ffc672" d="M 63.5,-0.5 C 64.5,-0.5 65.5,-0.5 66.5,-0.5C 67.6068,4.08148 67.7734,8.74815 67,13.5C 65.9887,14.3366 64.8221,14.67 63.5,14.5C 63.5,9.5 63.5,4.5 63.5,-0.5 Z"></path>
    </g>
    <g>
      <path fill="#ffc373" d="M 83.5,-0.5 C 85.1667,-0.5 86.8333,-0.5 88.5,-0.5C 90.9213,1.62304 91.0879,3.95637 89,6.5C 86.1509,10.2028 82.6509,12.8695 78.5,14.5C 74.774,14.2017 73.6073,12.2017 75,8.5C 78.0379,5.63064 80.8712,2.63064 83.5,-0.5 Z"></path>
    </g>
    <g>
      <path fill="#eaeaef" d="M 63.5,32.5 C 63.5,36.1667 63.5,39.8333 63.5,43.5C 43.9182,34.1241 23.2515,29.4574 1.5,29.5C 13.0876,18.6833 26.7543,14.85 42.5,18C 51.2783,20.379 58.2783,25.2123 63.5,32.5 Z"></path>
    </g>
    <g>
      <path fill="#cfdce2" d="M 125.5,29.5 C 103.945,28.9727 83.6114,33.6394 64.5,43.5C 64.1667,43.5 63.8333,43.5 63.5,43.5C 63.5,39.8333 63.5,36.1667 63.5,32.5C 76.3985,17.1871 92.3985,13.0205 111.5,20C 117.099,21.9533 121.766,25.12 125.5,29.5 Z"></path>
    </g>
    <g>
      <path fill="#4b2746" d="M 125.5,29.5 C 126.167,29.8333 126.833,30.1667 127.5,30.5C 127.5,57.5 127.5,84.5 127.5,111.5C 114.742,112.682 102.075,114.849 89.5,118C 81.2883,120.119 73.6217,123.285 66.5,127.5C 65.5,127.5 64.5,127.5 63.5,127.5C 63.1756,99.4261 63.5089,71.4261 64.5,43.5C 83.6114,33.6394 103.945,28.9727 125.5,29.5 Z"></path>
    </g>
    <g>
      <path fill="#704c55" d="M 1.5,29.5 C 23.2515,29.4574 43.9182,34.1241 63.5,43.5C 63.8333,43.5 64.1667,43.5 64.5,43.5C 63.5089,71.4261 63.1756,99.4261 63.5,127.5C 62.5,127.5 61.5,127.5 60.5,127.5C 52.3736,122.951 43.707,119.451 34.5,117C 22.8344,114.706 11.1677,112.873 -0.5,111.5C -0.5,84.5 -0.5,57.5 -0.5,30.5C 0.166667,30.1667 0.833333,29.8333 1.5,29.5 Z"></path>
    </g>
    <g>
      <path fill="#f5da6d" d="M 93.5,52.5 C 94.1499,67.5381 93.4833,82.2048 91.5,96.5C 90.8826,96.3893 90.3826,96.056 90,95.5C 89.5003,87.8406 89.3336,80.1739 89.5,72.5C 85.7786,73.1876 82.112,74.1876 78.5,75.5C 74.1813,74.2105 73.5146,71.8771 76.5,68.5C 80.6036,66.3912 84.9369,65.0579 89.5,64.5C 89.335,61.1501 89.5017,57.8168 90,54.5C 90.8159,53.1772 91.9826,52.5106 93.5,52.5 Z"></path>
    </g>
    <g>
      <path fill="#f9c071" d="M 93.5,52.5 C 95.1238,52.3601 96.2904,53.0267 97,54.5C 97.4966,56.8098 97.6633,59.1432 97.5,61.5C 101.832,60.9035 106.165,60.7368 110.5,61C 113.167,63.3333 113.167,65.6667 110.5,68C 106.24,68.5698 102.074,69.4031 98,70.5C 97.6667,78.8333 97.3333,87.1667 97,95.5C 95.3221,97.5532 93.4888,97.8866 91.5,96.5C 93.4833,82.2048 94.1499,67.5381 93.5,52.5 Z"></path>
    </g>
  </symbol>
  <symbol xmlns="http://www.w3.org/2000/svg" version="1.1" xmlns:xlink="http://www.w3.org/1999/xlink" viewBox="0 0 128px 128px" id="bible-1">
    <g>
      <path fill="#000000" d="M 56.5,9.5 C 57.8333,9.5 59.1667,9.5 60.5,9.5C 60.665,12.8499 60.4983,16.1832 60,19.5C 58.9887,20.3366 57.8221,20.67 56.5,20.5C 56.5,16.8333 56.5,13.1667 56.5,9.5 Z"></path>
    </g>
    <g>
      <path fill="#000000" d="M 45.5,10.5 C 50.0567,12.3834 52.7234,15.7167 53.5,20.5C 49.8527,20.3784 47.0194,18.7118 45,15.5C 44.3603,13.735 44.5269,12.0683 45.5,10.5 Z"></path>
    </g>
    <g>
      <path fill="#000000" d="M 69.5,10.5 C 71.7029,11.0516 72.5362,12.3849 72,14.5C 69.7928,17.564 66.9594,19.564 63.5,20.5C 63.3433,19.1266 63.51,17.7932 64,16.5C 66.0396,14.6298 67.8729,12.6298 69.5,10.5 Z"></path>
    </g>
    <g>
      <path fill="#000000" d="M 25.5,17.5 C 37.5155,16.9197 48.5155,19.9197 58.5,26.5C 70.6601,18.264 83.8267,15.9307 98,19.5C 98.3333,22.5 98.6667,25.5 99,28.5C 100.713,29.8782 102.047,31.5448 103,33.5C 103.333,47.8333 103.667,62.1667 104,76.5C 107.867,78.0034 111.033,80.3368 113.5,83.5C 106.734,94.7759 99.7342,105.943 92.5,117C 91.1667,117.667 89.8333,117.667 88.5,117C 84.7557,114.045 80.9224,111.211 77,108.5C 76.2797,106.888 76.4464,105.388 77.5,104C 69.4568,102.319 63.1235,98.1527 58.5,91.5C 45.1791,90.6673 31.8458,90.1673 18.5,90C 17.0692,89.5348 15.9025,88.7014 15,87.5C 13.3602,69.2572 13.0269,50.9239 14,32.5C 14.6667,30.5 16,29.1667 18,28.5C 18.3333,25.5 18.6667,22.5 19,19.5C 21.277,18.8828 23.4437,18.2161 25.5,17.5 Z M 23.5,22.5 C 35.2571,21.1059 45.9238,23.7726 55.5,30.5C 56.8333,47.5 56.8333,64.5 55.5,81.5C 45.4543,76.3972 34.7876,74.0638 23.5,74.5C 23.5,57.1667 23.5,39.8333 23.5,22.5 Z M 77.5,22.5 C 82.8333,22.5 88.1667,22.5 93.5,22.5C 93.6666,35.5043 93.4999,48.5043 93,61.5C 91.5949,55.6177 89.5949,49.951 87,44.5C 79.5396,40.368 75.0396,42.368 73.5,50.5C 74.3201,55.4622 75.6534,60.2956 77.5,65C 75.484,68.5975 74.1507,72.4308 73.5,76.5C 69.3378,77.7763 65.3378,79.443 61.5,81.5C 60.3337,64.5098 60.1671,47.5098 61,30.5C 66.1738,26.9542 71.6738,24.2875 77.5,22.5 Z M 17.5,35.5 C 18.3312,49.6608 18.8312,63.9941 19,78.5C 31.4069,78.1816 43.2402,80.6816 54.5,86C 43.5,86.6667 32.5,86.6667 21.5,86C 20.0692,85.5348 18.9025,84.7014 18,83.5C 17.5001,67.5035 17.3334,51.5035 17.5,35.5 Z M 80.5,46.5 C 81.7206,47.0283 82.8873,47.695 84,48.5C 87.2337,56.1994 89.2337,64.1994 90,72.5C 91.1667,74.8333 92.3333,77.1667 93.5,79.5C 89.3713,86.7907 84.5379,93.4574 79,99.5C 71.3624,98.0134 65.5291,94.0134 61.5,87.5C 65.4231,83.8744 70.0898,81.8744 75.5,81.5C 75.3784,84.2574 76.5451,86.2574 79,87.5C 79.8333,86.6667 80.6667,85.8333 81.5,85C 80.1058,82.1508 79.1058,79.1508 78.5,76C 78.9711,72.4058 80.3045,69.2391 82.5,66.5C 80.8333,61.1667 79.1667,55.8333 77.5,50.5C 77.7867,48.5567 78.7867,47.2233 80.5,46.5 Z M 99.5,79.5 C 102.475,80.6551 105.142,82.3218 107.5,84.5C 101.865,93.9663 96.0312,103.3 90,112.5C 87.2567,110.212 84.4233,108.045 81.5,106C 87.7212,97.2857 93.7212,88.4523 99.5,79.5 Z"></path>
    </g>
    <g>
      <path fill="#000000" d="M 38.5,36.5 C 39.5,36.5 40.5,36.5 41.5,36.5C 40.5024,42.1675 42.8357,44.5008 48.5,43.5C 48.5,44.8333 48.5,46.1667 48.5,47.5C 46.1667,47.5 43.8333,47.5 41.5,47.5C 41.5,53.1667 41.5,58.8333 41.5,64.5C 40.1667,64.5 38.8333,64.5 37.5,64.5C 37.5,58.5 37.5,52.5 37.5,46.5C 35.4727,46.6621 33.4727,46.4955 31.5,46C 30.3772,41.6396 32.0439,40.473 36.5,42.5C 37.2945,40.5049 37.9612,38.5049 38.5,36.5 Z"></path>
    </g>
    <g>
      <path fill="#000000" d="M 24.5,99.5 C 25.8333,99.5 27.1667,99.5 28.5,99.5C 28.7778,101.346 28.1112,102.68 26.5,103.5C 24.8888,102.68 24.2222,101.346 24.5,99.5 Z"></path>
    </g>
    <g>
      <path fill="#000000" d="M 48.5,99.5 C 51.8333,100.833 55.1667,100.833 58.5,99.5C 57.1667,102.833 57.1667,106.167 58.5,109.5C 55.1667,108.167 51.8333,108.167 48.5,109.5C 49.8333,106.167 49.8333,102.833 48.5,99.5 Z"></path>
    </g>
    <g>
      <path fill="#000000" d="M 86.5,104.5 C 87.8333,104.5 89.1667,104.5 90.5,104.5C 90.7778,106.346 90.1112,107.68 88.5,108.5C 86.8888,107.68 86.2222,106.346 86.5,104.5 Z"></path>
    </g>
  </symbol>
  <symbol xmlns="http://www.w3.org/2000/svg" version="1.1" xmlns:xlink="http://www.w3.org/1999/xlink" viewBox="0 0 128px 128px" id="bible-book">
    <g>
      <path fill="#000000" d="M 22.5,-0.5 C 52.1667,-0.5 81.8333,-0.5 111.5,-0.5C 111.5,6.16667 111.5,12.8333 111.5,19.5C 110.167,19.5 108.833,19.5 107.5,19.5C 107.5,14.1667 107.5,8.83333 107.5,3.5C 80.8333,3.5 54.1667,3.5 27.5,3.5C 27.5,27.5 27.5,51.5 27.5,75.5C 26.1667,75.5 24.8333,75.5 23.5,75.5C 23.6666,52.1643 23.5,28.831 23,5.5C 21.4728,7.22096 20.4728,9.22096 20,11.5C 19.3333,38.8333 19.3333,66.1667 20,93.5C 21,92.8333 22,92.1667 23,91.5C 23.4988,87.5138 23.6655,83.5138 23.5,79.5C 24.8333,79.5 26.1667,79.5 27.5,79.5C 27.5,83.5 27.5,87.5 27.5,91.5C 54.1667,91.5 80.8333,91.5 107.5,91.5C 107.5,68.8333 107.5,46.1667 107.5,23.5C 108.833,23.5 110.167,23.5 111.5,23.5C 111.667,47.5023 111.5,71.5023 111,95.5C 109.299,97.9 108.466,100.567 108.5,103.5C 109.507,107.509 110.507,111.509 111.5,115.5C 86.1667,115.5 60.8333,115.5 35.5,115.5C 35.5,119.5 35.5,123.5 35.5,127.5C 34.1667,127.5 32.8333,127.5 31.5,127.5C 30.1667,124.833 28.8333,124.833 27.5,127.5C 26.1667,127.5 24.8333,127.5 23.5,127.5C 23.6655,123.486 23.4988,119.486 23,115.5C 20,113.833 17.6667,111.5 16,108.5C 15.3333,74.5 15.3333,40.5 16,6.5C 17.6941,3.64238 19.8607,1.30904 22.5,-0.5 Z M 65.5,23.5 C 66.8333,23.5 68.1667,23.5 69.5,23.5C 69.5,27.5 69.5,31.5 69.5,35.5C 73.5,35.5 77.5,35.5 81.5,35.5C 81.5,36.8333 81.5,38.1667 81.5,39.5C 77.5,39.5 73.5,39.5 69.5,39.5C 69.5,50.1667 69.5,60.8333 69.5,71.5C 68.1667,71.5 66.8333,71.5 65.5,71.5C 65.5,60.8333 65.5,50.1667 65.5,39.5C 61.5,39.5 57.5,39.5 53.5,39.5C 53.5,38.1667 53.5,36.8333 53.5,35.5C 57.5,35.5 61.5,35.5 65.5,35.5C 65.5,31.5 65.5,27.5 65.5,23.5 Z M 27.5,95.5 C 53.1753,95.1669 78.842,95.5002 104.5,96.5C 103.167,101.167 103.167,105.833 104.5,110.5C 81.5097,111.5 58.5097,111.833 35.5,111.5C 35.5,109.5 35.5,107.5 35.5,105.5C 44.8333,105.5 54.1667,105.5 63.5,105.5C 63.5,104.167 63.5,102.833 63.5,101.5C 50.1667,101.5 36.8333,101.5 23.5,101.5C 23.6641,104.187 23.4974,106.854 23,109.5C 18.7114,102.827 20.2114,98.1603 27.5,95.5 Z M 27.5,105.5 C 28.8333,105.5 30.1667,105.5 31.5,105.5C 31.5,110.167 31.5,114.833 31.5,119.5C 30.1667,119.5 28.8333,119.5 27.5,119.5C 27.5,114.833 27.5,110.167 27.5,105.5 Z"></path>
    </g>
    <g>
      <path fill="#000000" d="M 61.5,19.5 C 65.5,19.5 69.5,19.5 73.5,19.5C 73.5,23.5 73.5,27.5 73.5,31.5C 77.5,31.5 81.5,31.5 85.5,31.5C 85.5,35.5 85.5,39.5 85.5,43.5C 81.5,43.5 77.5,43.5 73.5,43.5C 73.5,54.1667 73.5,64.8333 73.5,75.5C 69.5,75.5 65.5,75.5 61.5,75.5C 61.5,64.8333 61.5,54.1667 61.5,43.5C 57.5,43.5 53.5,43.5 49.5,43.5C 49.5,39.5 49.5,35.5 49.5,31.5C 53.5,31.5 57.5,31.5 61.5,31.5C 61.5,27.5 61.5,23.5 61.5,19.5 Z M 65.5,23.5 C 65.5,27.5 65.5,31.5 65.5,35.5C 61.5,35.5 57.5,35.5 53.5,35.5C 53.5,36.8333 53.5,38.1667 53.5,39.5C 57.5,39.5 61.5,39.5 65.5,39.5C 65.5,50.1667 65.5,60.8333 65.5,71.5C 66.8333,71.5 68.1667,71.5 69.5,71.5C 69.5,60.8333 69.5,50.1667 69.5,39.5C 73.5,39.5 77.5,39.5 81.5,39.5C 81.5,38.1667 81.5,36.8333 81.5,35.5C 77.5,35.5 73.5,35.5 69.5,35.5C 69.5,31.5 69.5,27.5 69.5,23.5C 68.1667,23.5 66.8333,23.5 65.5,23.5 Z"></path>
    </g>
    <g>
      <path fill="#000000" d="M 67.5,101.5 C 78.1667,101.5 88.8333,101.5 99.5,101.5C 99.5,102.833 99.5,104.167 99.5,105.5C 88.8333,105.5 78.1667,105.5 67.5,105.5C 67.5,104.167 67.5,102.833 67.5,101.5 Z"></path>
    </g>
  </symbol>
  <symbol xmlns="http://www.w3.org/2000/svg" version="1.1" xmlns:xlink="http://www.w3.org/1999/xlink" viewBox="0 0 128px 128px" id="choir">
    <g>
      <path fill="#090607" d="M 50.5,-0.5 C 53.1667,-0.5 55.8333,-0.5 58.5,-0.5C 59.4577,0.961599 60.6244,2.29493 62,3.5C 62.1922,5.5767 62.6922,7.5767 63.5,9.5C 72.8592,12.8592 79.1926,19.1926 82.5,28.5C 87.1879,32.0224 88.6879,36.6891 87,42.5C 86.1729,43.6621 85.3396,44.8288 84.5,46C 86.1576,51.7419 86.6576,57.5752 86,63.5C 85.6174,64.056 85.1174,64.3893 84.5,64.5C 82.6443,58.078 81.311,51.4114 80.5,44.5C 78.5,44.1667 76.5,43.8333 74.5,43.5C 74.6662,49.8421 74.4995,56.1754 74,62.5C 73.3605,65.1123 72.1938,67.4457 70.5,69.5C 74.5518,70.9308 77.3851,73.5974 79,77.5C 80.2985,74.9938 81.2985,72.3272 82,69.5C 82.6708,68.7476 83.5041,68.4142 84.5,68.5C 85.8143,70.8953 85.8143,73.3953 84.5,76C 89.6336,77.0876 91.6336,80.2542 90.5,85.5C 92.6547,85.372 94.6547,85.872 96.5,87C 104.44,96.071 104.44,105.071 96.5,114C 92.6824,114.565 90.0157,116.565 88.5,120C 84.5223,122.171 80.5223,122.671 76.5,121.5C 76.4142,120.504 76.7476,119.671 77.5,119C 80.1168,118.178 82.7835,117.678 85.5,117.5C 85.6653,113.818 85.4986,110.152 85,106.5C 84.3333,105.833 83.6667,105.167 83,104.5C 82.8333,101.833 82.6667,99.1667 82.5,96.5C 82.5487,90.8733 83.5487,85.5399 85.5,80.5C 75.8619,82.6066 66.1952,84.6066 56.5,86.5C 55.5048,98.6554 55.1714,110.989 55.5,123.5C 56.791,123.737 57.791,123.404 58.5,122.5C 61.8651,122.046 65.1985,121.38 68.5,120.5C 70.1143,120.803 71.4477,121.47 72.5,122.5C 72.3893,123.117 72.056,123.617 71.5,124C 67.3773,125.192 63.3773,126.359 59.5,127.5C 56.1667,127.5 52.8333,127.5 49.5,127.5C 40.368,125.036 31.0347,122.87 21.5,121C 19.3291,119.826 18.3291,117.993 18.5,115.5C 15.1379,115.93 12.3046,114.93 10,112.5C 7.405,109.083 5.905,105.249 5.5,101C 6.46712,94.7248 9.46712,89.7248 14.5,86C 15.7932,85.51 17.1266,85.3433 18.5,85.5C 18.3367,83.1432 18.5034,80.8098 19,78.5C 20.1096,76.9632 21.6096,76.2965 23.5,76.5C 20.9929,66.6883 20.9929,56.8549 23.5,47C 23.1416,44.9676 22.3083,43.1343 21,41.5C 20.3333,39.5 20.3333,37.5 21,35.5C 24.7353,30.9877 27.7353,25.9877 30,20.5C 31.6024,17.6261 33.769,16.6261 36.5,17.5C 36.6495,18.552 36.4828,19.552 36,20.5C 33.1068,22.279 31.9401,24.6123 32.5,27.5C 44.0043,24.3608 55.671,23.6942 67.5,25.5C 70.6335,26.7432 73.9668,27.2432 77.5,27C 73.3681,20.038 67.3681,15.538 59.5,13.5C 53.4573,11.8882 47.624,12.5549 42,15.5C 41.0979,15.2568 40.2646,14.9234 39.5,14.5C 39.4142,13.5041 39.7476,12.6708 40.5,12C 44.7296,10.3905 46.8962,7.22383 47,2.5C 48.1451,1.36362 49.3117,0.363622 50.5,-0.5 Z"></path>
    </g>
    <g>
      <path fill="#c2dbde" d="M 51.5,3.5 C 55.8514,2.53296 58.1847,4.19963 58.5,8.5C 55.8333,8.5 53.1667,8.5 50.5,8.5C 50.366,6.70848 50.6993,5.04181 51.5,3.5 Z"></path>
    </g>
    <g>
      <path fill="#f94553" d="M 59.5,13.5 C 63.1985,16.5449 66.1985,20.2115 68.5,24.5C 68.3764,25.1067 68.0431,25.44 67.5,25.5C 55.671,23.6942 44.0043,24.3608 32.5,27.5C 31.9401,24.6123 33.1068,22.279 36,20.5C 36.4828,19.552 36.6495,18.552 36.5,17.5C 37.1667,16.1667 38.1667,15.1667 39.5,14.5C 40.2646,14.9234 41.0979,15.2568 42,15.5C 47.624,12.5549 53.4573,11.8882 59.5,13.5 Z"></path>
    </g>
    <g>
      <path fill="#b7222d" d="M 59.5,13.5 C 67.3681,15.538 73.3681,20.038 77.5,27C 73.9668,27.2432 70.6335,26.7432 67.5,25.5C 68.0431,25.44 68.3764,25.1067 68.5,24.5C 66.1985,20.2115 63.1985,16.5449 59.5,13.5 Z"></path>
    </g>
    <g>
      <path fill="#010101" d="M 115.5,23.5 C 117.467,23.2606 119.301,23.5939 121,24.5C 121.89,31.914 121.557,39.2473 120,46.5C 114.029,51.106 109.863,49.7727 107.5,42.5C 108.586,37.7817 111.586,35.7817 116.5,36.5C 116.664,33.8127 116.497,31.146 116,28.5C 112.411,30.5297 108.578,31.863 104.5,32.5C 104.666,38.8421 104.5,45.1754 104,51.5C 100.791,56.258 97.1247,56.5913 93,52.5C 90.3999,46.0295 92.5666,42.6961 99.5,42.5C 99.3345,38.4862 99.5012,34.4862 100,30.5C 105.007,27.6706 110.174,25.3373 115.5,23.5 Z"></path>
    </g>
    <g>
      <path fill="#f2efef" d="M 60.5,31.5 C 60.5,33.1667 60.5,34.8333 60.5,36.5C 56.1667,36.5 51.8333,36.5 47.5,36.5C 47.5,33.8333 47.5,31.1667 47.5,28.5C 51.8333,28.5 56.1667,28.5 60.5,28.5C 60.5,29.5 60.5,30.5 60.5,31.5 Z"></path>
    </g>
    <g>
      <path fill="#e4e1e1" d="M 36.5,29.5 C 39.1667,29.5 41.8333,29.5 44.5,29.5C 44.5,32.1667 44.5,34.8333 44.5,37.5C 41.7508,37.2739 39.0841,37.6072 36.5,38.5C 35.2588,35.463 35.2588,32.463 36.5,29.5 Z"></path>
    </g>
    <g>
      <path fill="#ebe8e8" d="M 64.5,29.5 C 71.5,28.5 74.5,31.5 73.5,38.5C 70.4824,38.2962 67.4824,37.9629 64.5,37.5C 64.5,34.8333 64.5,32.1667 64.5,29.5 Z"></path>
    </g>
    <g>
      <path fill="#e6e3e3" d="M 28.5,31.5 C 29.5,31.5 30.5,31.5 31.5,31.5C 31.8134,34.2469 31.48,36.9135 30.5,39.5C 28.5914,40.3482 26.5914,40.6816 24.5,40.5C 24.3398,38.8008 24.5065,37.1341 25,35.5C 26.3756,34.2949 27.5423,32.9616 28.5,31.5 Z"></path>
    </g>
    <g>
      <path fill="#ccdadc" d="M 76.5,31.5 C 81.9222,31.9856 84.2556,34.9856 83.5,40.5C 81.2075,40.7564 79.0408,40.4231 77,39.5C 76.5026,36.854 76.3359,34.1873 76.5,31.5 Z"></path>
    </g>
    <g>
      <path fill="#585757" d="M 60.5,31.5 C 61.4614,33.2646 61.7947,35.2646 61.5,37.5C 56.6367,37.8195 51.97,37.4861 47.5,36.5C 51.8333,36.5 56.1667,36.5 60.5,36.5C 60.5,34.8333 60.5,33.1667 60.5,31.5 Z"></path>
    </g>
    <g>
      <path fill="#5f5860" d="M 43.5,40.5 C 45.1992,40.3398 46.8659,40.5065 48.5,41C 44.0487,43.641 39.5487,46.141 35,48.5C 34.3333,53.5 34.3333,58.5 35,63.5C 35.5163,66.0336 36.683,68.2002 38.5,70C 34.1571,71.0095 30.9904,73.5095 29,77.5C 26.0378,66.9496 25.7045,56.283 28,45.5C 32.9623,43.0141 38.129,41.3474 43.5,40.5 Z"></path>
    </g>
    <g>
      <path fill="#f3c3b5" d="M 55.5,40.5 C 60.518,40.6133 65.518,40.9466 70.5,41.5C 70.6663,48.5079 70.4996,55.5079 70,62.5C 68.8022,66.7459 66.3022,69.9125 62.5,72C 44.6849,75.8524 36.5183,68.6857 38,50.5C 44.4342,48.0384 50.2676,44.7051 55.5,40.5 Z"></path>
    </g>
    <g>
      <path fill="#615b63" d="M 113.5,40.5 C 115.912,40.6941 116.912,42.0274 116.5,44.5C 115.167,44.5 113.833,44.5 112.5,44.5C 112.433,43.0413 112.766,41.7079 113.5,40.5 Z"></path>
    </g>
    <g>
      <path fill="#554f57" d="M 84.5,64.5 C 84.5,65.8333 84.5,67.1667 84.5,68.5C 83.5041,68.4142 82.6708,68.7476 82,69.5C 81.2985,72.3272 80.2985,74.9938 79,77.5C 77.3851,73.5974 74.5518,70.9308 70.5,69.5C 72.1938,67.4457 73.3605,65.1123 74,62.5C 74.4995,56.1754 74.6662,49.8421 74.5,43.5C 76.5,43.8333 78.5,44.1667 80.5,44.5C 81.311,51.4114 82.6443,58.078 84.5,64.5 Z"></path>
    </g>
    <g>
      <path fill="#5b555d" d="M 96.5,46.5 C 99.1662,46.0658 100.333,47.0658 100,49.5C 96.4034,51.0661 95.2368,50.0661 96.5,46.5 Z"></path>
    </g>
    <g>
      <path fill="#251f1d" d="M 45.5,50.5 C 48.9563,51.5362 49.2896,53.2029 46.5,55.5C 44.2957,54.218 43.9624,52.5514 45.5,50.5 Z"></path>
    </g>
    <g>
      <path fill="#080605" d="M 60.5,50.5 C 62.9118,50.6941 63.9118,52.0274 63.5,54.5C 62.5,54.5 61.5,54.5 60.5,54.5C 60.5,53.1667 60.5,51.8333 60.5,50.5 Z"></path>
    </g>
    <g>
      <path fill="#0e0b0a" d="M 48.5,58.5 C 52.5138,58.3345 56.5138,58.5012 60.5,59C 62.133,66.3711 59.133,69.7044 51.5,69C 47.5814,66.3105 46.5814,62.8105 48.5,58.5 Z"></path>
    </g>
    <g>
      <path fill="#b36565" d="M 50.5,61.5 C 52.8333,61.5 55.1667,61.5 57.5,61.5C 57.5923,65.0714 55.9257,66.2381 52.5,65C 51.1772,64.1841 50.5106,63.0174 50.5,61.5 Z"></path>
    </g>
    <g>
      <path fill="#63b0e6" d="M 35.5,74.5 C 47.8333,75.608 60.1666,75.7746 72.5,75C 73.6872,76.0195 74.6872,77.1861 75.5,78.5C 68.1667,80.1667 60.8333,81.8333 53.5,83.5C 46.8372,82.0341 40.1705,80.7008 33.5,79.5C 33.3915,77.4862 34.0582,75.8195 35.5,74.5 Z"></path>
    </g>
    <g>
      <path fill="#f1eeee" d="M 22.5,80.5 C 32.4501,82.7141 42.4501,84.7141 52.5,86.5C 52.5,98.8333 52.5,111.167 52.5,123.5C 42.6193,121.26 32.786,118.926 23,116.5C 21.5875,111.468 22.5875,107.135 26,103.5C 26.6667,98.8333 26.6667,94.1667 26,89.5C 22.9553,87.2807 21.7886,84.2807 22.5,80.5 Z"></path>
    </g>
    <g>
      <path fill="#c6e0e3" d="M 76.5,121.5 C 75.0413,121.433 73.7079,121.766 72.5,122.5C 71.4477,121.47 70.1143,120.803 68.5,120.5C 65.1985,121.38 61.8651,122.046 58.5,122.5C 56.5209,110.88 55.8542,98.8799 56.5,86.5C 66.1952,84.6066 75.8619,82.6066 85.5,80.5C 83.5487,85.5399 82.5487,90.8733 82.5,96.5C 82.6667,99.1667 82.8333,101.833 83,104.5C 83.6667,105.167 84.3333,105.833 85,106.5C 85.4986,110.152 85.6653,113.818 85.5,117.5C 82.7835,117.678 80.1168,118.178 77.5,119C 76.7476,119.671 76.4142,120.504 76.5,121.5 Z"></path>
    </g>
    <g>
      <path fill="#4b5455" d="M 56.5,86.5 C 55.8542,98.8799 56.5209,110.88 58.5,122.5C 57.791,123.404 56.791,123.737 55.5,123.5C 55.1714,110.989 55.5048,98.6554 56.5,86.5 Z"></path>
    </g>
    <g>
      <path fill="#ef4350" d="M 15.5,89.5 C 17.7925,89.2436 19.9592,89.5769 22,90.5C 22.7961,94.7548 22.6295,98.9215 21.5,103C 13.9105,103.729 11.0772,100.229 13,92.5C 14.045,91.6266 14.8783,90.6266 15.5,89.5 Z"></path>
    </g>
    <g>
      <path fill="#191919" d="M 30.5,89.5 C 35.4279,90.8216 40.4279,91.8216 45.5,92.5C 45.5,93.5 45.5,94.5 45.5,95.5C 41.1234,95.4225 36.7901,94.9225 32.5,94C 29.715,93.2742 29.0484,91.7742 30.5,89.5 Z"></path>
    </g>
    <g>
      <path fill="#ea414e" d="M 86.5,89.5 C 94.5623,88.9232 97.3957,92.5899 95,100.5C 92.5686,103.518 89.5686,104.185 86,102.5C 85.2316,98.0804 85.3982,93.7471 86.5,89.5 Z"></path>
    </g>
    <g>
      <path fill="#131313" d="M 30.5,102.5 C 35.1421,103.395 39.8087,104.228 44.5,105C 45.3366,106.011 45.67,107.178 45.5,108.5C 40.5,107.833 35.5,107.167 30.5,106.5C 30.5,105.167 30.5,103.833 30.5,102.5 Z"></path>
    </g>
    <g>
      <path fill="#ac1f2a" d="M 96.5,104.5 C 97.1532,107.058 96.1532,109.225 93.5,111C 92.2068,111.49 90.8734,111.657 89.5,111.5C 89.5,109.833 89.5,108.167 89.5,106.5C 92.2282,106.829 94.5615,106.163 96.5,104.5 Z"></path>
    </g>
    <g>
      <path fill="#ac1f2a" d="M 10.5,103.5 C 12.5452,105.984 15.2118,106.984 18.5,106.5C 18.5,108.167 18.5,109.833 18.5,111.5C 13.6305,111.129 10.9638,108.462 10.5,103.5 Z"></path>
    </g>
  </symbol>
  <symbol xmlns="http://www.w3.org/2000/svg" version="1.1" xmlns:xlink="http://www.w3.org/1999/xlink" viewBox="0 0 128px 128px" id="choir-1">
    <g>
      <path fill="#000000" d="M 50.5,-0.5 C 53.1667,-0.5 55.8333,-0.5 58.5,-0.5C 59.4577,0.961599 60.6244,2.29493 62,3.5C 62.1922,5.5767 62.6922,7.5767 63.5,9.5C 72.8592,12.8592 79.1926,19.1926 82.5,28.5C 87.1879,32.0224 88.6879,36.6891 87,42.5C 86.1729,43.6621 85.3396,44.8288 84.5,46C 86.1576,51.7419 86.6576,57.5752 86,63.5C 84.6667,64.8333 83.3333,64.8333 82,63.5C 81.6749,57.0842 80.8416,50.7509 79.5,44.5C 78.1779,44.67 77.0113,44.3366 76,43.5C 75.7306,50.542 75.064,57.542 74,64.5C 73.1667,66.1667 72.3333,67.8333 71.5,69.5C 74.4854,70.9074 76.9854,72.9074 79,75.5C 80.1316,73.6608 80.9649,71.6608 81.5,69.5C 82.6888,68.5713 84.0222,68.238 85.5,68.5C 85.7683,71.1194 85.435,73.6194 84.5,76C 89.6336,77.0876 91.6336,80.2542 90.5,85.5C 92.6547,85.372 94.6547,85.872 96.5,87C 104.44,96.071 104.44,105.071 96.5,114C 92.6824,114.565 90.0157,116.565 88.5,120C 84.7018,121.783 80.7018,122.616 76.5,122.5C 76.2865,120.856 76.6198,119.356 77.5,118C 80.1677,117.433 82.8344,116.933 85.5,116.5C 84.9293,109.609 83.596,102.943 81.5,96.5C 81.6667,94.1667 81.8333,91.8333 82,89.5C 82.3678,88.09 83.2011,87.09 84.5,86.5C 85.4519,84.9547 85.7852,83.288 85.5,81.5C 76.0877,83.1158 66.7544,85.1158 57.5,87.5C 56.5011,99.1477 56.1678,110.814 56.5,122.5C 60.9168,121.883 65.2501,120.883 69.5,119.5C 71.9803,120.415 72.6469,121.915 71.5,124C 67.3773,125.192 63.3773,126.359 59.5,127.5C 56.1667,127.5 52.8333,127.5 49.5,127.5C 40.368,125.036 31.0347,122.87 21.5,121C 19.3291,119.826 18.3291,117.993 18.5,115.5C 15.1379,115.93 12.3046,114.93 10,112.5C 7.405,109.083 5.905,105.249 5.5,101C 6.46712,94.7248 9.46712,89.7248 14.5,86C 15.7932,85.51 17.1266,85.3433 18.5,85.5C 18.3367,83.1432 18.5034,80.8098 19,78.5C 20.1096,76.9632 21.6096,76.2965 23.5,76.5C 20.9929,66.6883 20.9929,56.8549 23.5,47C 23.1416,44.9676 22.3083,43.1343 21,41.5C 20.3333,39.5 20.3333,37.5 21,35.5C 24.618,29.0191 28.7846,22.8524 33.5,17C 35.4731,16.4622 36.4731,17.2956 36.5,19.5C 35.4017,21.7751 34.0683,23.9417 32.5,26C 33.1667,26.1667 33.8333,26.3333 34.5,26.5C 41.0821,25.0587 47.7488,24.392 54.5,24.5C 61.9124,24.613 69.2457,25.113 76.5,26C 67.4815,13.4338 55.9815,10.2672 42,16.5C 39.8125,15.9407 39.1458,14.6073 40,12.5C 41.6667,11.5 43.3333,10.5 45,9.5C 45.2614,5.14379 47.0947,1.81045 50.5,-0.5 Z M 53.5,3.5 C 56.4734,3.96513 57.6401,5.6318 57,8.5C 55.2041,7.23302 53.3707,7.23302 51.5,8.5C 50.4173,7.63505 50.2506,6.63505 51,5.5C 51.9947,4.93406 52.828,4.26739 53.5,3.5 Z M 53.5,28.5 C 59.0102,28.4163 61.3435,31.0829 60.5,36.5C 56.5,36.5 52.5,36.5 48.5,36.5C 48.5,34.1667 48.5,31.8333 48.5,29.5C 50.4147,29.7845 52.0813,29.4511 53.5,28.5 Z M 41.5,29.5 C 42.7251,30.1522 43.3917,31.3189 43.5,33C 43.3333,34.1667 43.1667,35.3333 43,36.5C 40.6667,37.1667 38.3333,37.8333 36,38.5C 36.2554,35.9184 36.422,33.2518 36.5,30.5C 38.4147,30.7845 40.0813,30.4511 41.5,29.5 Z M 64.5,29.5 C 70.3984,29.0923 73.065,31.759 72.5,37.5C 70.1667,37.5 67.8333,37.5 65.5,37.5C 65.1667,34.8333 64.8333,32.1667 64.5,29.5 Z M 28.5,32.5 C 29.5,32.5 30.5,32.5 31.5,32.5C 31.5,34.8333 31.5,37.1667 31.5,39.5C 29.5,39.8333 27.5,40.1667 25.5,40.5C 25.0156,37.2118 26.0156,34.5452 28.5,32.5 Z M 77.5,32.5 C 81.1467,32.8133 83.1467,34.8133 83.5,38.5C 83.1667,39.5 82.5,40.1667 81.5,40.5C 80.2638,39.7542 78.9305,39.4208 77.5,39.5C 77.5,37.1667 77.5,34.8333 77.5,32.5 Z M 41.5,41.5 C 43.1992,41.3398 44.8659,41.5065 46.5,42C 42.8333,43.6667 39.1667,45.3333 35.5,47C 32.4455,54.9539 33.1121,62.6206 37.5,70C 33.5013,70.6678 30.668,72.8345 29,76.5C 26.0065,65.9012 25.8399,55.2346 28.5,44.5C 33.0348,43.8632 37.3681,42.8632 41.5,41.5 Z M 55.5,41.5 C 60.547,41.3375 65.547,41.6708 70.5,42.5C 70.6661,48.1764 70.4994,53.8431 70,59.5C 69.3667,64.6116 66.8667,68.445 62.5,71C 56.8333,71.6667 51.1667,71.6667 45.5,71C 38.7505,65.6149 36.7505,58.7816 39.5,50.5C 45.5122,48.4994 50.8455,45.4994 55.5,41.5 Z M 51.5,63.5 C 53.0348,62.2121 54.7015,62.2121 56.5,63.5C 54.8327,64.6664 53.166,64.6664 51.5,63.5 Z M 35.5,75.5 C 46.3371,76.63 57.1704,76.63 68,75.5C 70.6636,75.1912 72.8302,76.0246 74.5,78C 67.9905,80.127 61.3238,81.627 54.5,82.5C 47.5141,81.8393 40.8475,80.1727 34.5,77.5C 34.8627,76.8165 35.1961,76.1499 35.5,75.5 Z M 23.5,81.5 C 32.7858,83.0568 41.9524,85.0568 51,87.5C 51.8325,99.1809 51.6659,110.848 50.5,122.5C 41.8333,120.5 33.1667,118.5 24.5,116.5C 23.343,113.216 23.1764,109.882 24,106.5C 24.6667,105.833 25.3333,105.167 26,104.5C 26.6667,99.1667 26.6667,93.8333 26,88.5C 23.8634,86.6789 23.0301,84.3456 23.5,81.5 Z M 15.5,90.5 C 17.7925,90.2436 19.9592,90.5769 22,91.5C 22.7886,95.0915 22.6219,98.5915 21.5,102C 13.9921,103.141 11.4921,99.9745 14,92.5C 14.7172,91.9558 15.2172,91.2891 15.5,90.5 Z M 86.5,90.5 C 94.9967,90.4572 97.3301,94.2906 93.5,102C 91.1902,102.497 88.8568,102.663 86.5,102.5C 86.5,98.5 86.5,94.5 86.5,90.5 Z M 12.5,106.5 C 14.4352,107.15 16.4352,107.483 18.5,107.5C 18.6567,108.873 18.49,110.207 18,111.5C 15.3885,110.623 13.5551,108.957 12.5,106.5 Z M 94.5,106.5 C 95.2389,106.369 95.9056,106.536 96.5,107C 94.9571,108.878 93.1238,110.378 91,111.5C 90.51,110.207 90.3433,108.873 90.5,107.5C 92.099,107.768 93.4324,107.434 94.5,106.5 Z"></path>
    </g>
    <g>
      <path fill="#000000" d="M 115.5,23.5 C 117.467,23.2606 119.301,23.5939 121,24.5C 121.89,31.914 121.557,39.2473 120,46.5C 114.029,51.106 109.863,49.7727 107.5,42.5C 108.586,37.7817 111.586,35.7817 116.5,36.5C 116.664,33.8127 116.497,31.146 116,28.5C 112.411,30.5297 108.578,31.863 104.5,32.5C 104.666,38.8421 104.5,45.1754 104,51.5C 100.791,56.258 97.1247,56.5913 93,52.5C 90.3999,46.0295 92.5666,42.6961 99.5,42.5C 99.3345,38.4862 99.5012,34.4862 100,30.5C 105.007,27.6706 110.174,25.3373 115.5,23.5 Z M 113.5,41.5 C 116.674,41.9522 117.007,42.9522 114.5,44.5C 112.481,43.8671 112.147,42.8671 113.5,41.5 Z M 97.5,46.5 C 99.8519,47.5426 100.019,48.8759 98,50.5C 96.2317,49.3181 96.0651,47.9848 97.5,46.5 Z"></path>
    </g>
    <g>
      <path fill="#000000" d="M 44.5,50.5 C 48.6759,49.8307 50.0093,51.3307 48.5,55C 47.2068,55.49 45.8734,55.6567 44.5,55.5C 44.5,53.8333 44.5,52.1667 44.5,50.5 Z"></path>
    </g>
    <g>
      <path fill="#000000" d="M 59.5,50.5 C 63.6759,49.8307 65.0093,51.3307 63.5,55C 62.2068,55.49 60.8734,55.6567 59.5,55.5C 59.5,53.8333 59.5,52.1667 59.5,50.5 Z"></path>
    </g>
    <g>
      <path fill="#000000" d="M 48.5,57.5 C 52.5138,57.3345 56.5138,57.5012 60.5,58C 62.6533,60.6166 62.82,63.45 61,66.5C 55.967,70.7793 51.3003,70.4459 47,65.5C 46.1093,62.5024 46.6093,59.8357 48.5,57.5 Z M 51.5,63.5 C 53.166,64.6664 54.8327,64.6664 56.5,63.5C 54.7015,62.2121 53.0348,62.2121 51.5,63.5 Z"></path>
    </g>
    <g>
      <path fill="#000000" d="M 29.5,89.5 C 34.5881,89.7507 39.5881,90.584 44.5,92C 47.2486,94.4231 46.7486,95.9231 43,96.5C 39.1384,95.7944 35.3051,94.961 31.5,94C 29.8934,92.951 29.2267,91.451 29.5,89.5 Z"></path>
    </g>
    <g>
      <path fill="#000000" d="M 30.5,101.5 C 35.5344,102.474 40.5344,103.641 45.5,105C 47,107.167 46.5,108.667 44,109.5C 39.2048,108.259 34.3715,107.259 29.5,106.5C 29.366,104.708 29.6993,103.042 30.5,101.5 Z"></path>
    </g>
  </symbol>
  <symbol xmlns="http://www.w3.org/2000/svg" version="1.1" xmlns:xlink="http://www.w3.org/1999/xlink" viewBox="0 0 128px 128px" id="elections">
    <g>
      <path fill="#000000" d="M 85.5,-0.5 C 87.1667,-0.5 88.8333,-0.5 90.5,-0.5C 102.649,5.06964 114.982,10.403 127.5,15.5C 127.5,22.1667 127.5,28.8333 127.5,35.5C 125.99,36.8361 124.323,38.0027 122.5,39C 120.005,39.1575 117.672,39.3241 115.5,39.5C 110.119,53.2706 102.953,65.9373 94,77.5C 91.146,79.5977 88.4794,81.931 86,84.5C 85.5001,96.8288 85.3335,109.162 85.5,121.5C 88.5184,121.335 91.5184,121.502 94.5,122C 95.4061,123.699 95.7394,125.533 95.5,127.5C 63.5,127.5 31.5,127.5 -0.5,127.5C -0.5,125.833 -0.5,124.167 -0.5,122.5C 2.72797,121.586 6.06131,121.253 9.5,121.5C 9.18068,104.119 9.51401,86.7861 10.5,69.5C 14.7956,68.6725 19.1289,68.1725 23.5,68C 21.1137,63.9409 20.947,59.7742 23,55.5C 27.3853,46.5565 32.8853,38.3898 39.5,31C 50.7552,26.4704 62.0885,22.137 73.5,18C 73.0945,16.1971 73.5945,14.3638 75,12.5C 78.5083,8.13612 82.0083,3.80278 85.5,-0.5 Z M 87.5,6.5 C 98.6956,10.4281 109.696,14.9281 120.5,20C 121.464,24.0659 121.797,28.2325 121.5,32.5C 108.033,27.4345 95.0333,21.2678 82.5,14C 84.4146,11.6004 86.0812,9.10039 87.5,6.5 Z M 81.5,21.5 C 90.718,26.0258 99.8847,30.6925 109,35.5C 104.25,51.8192 95.7502,65.9859 83.5,78C 72.0515,83.2234 61.0515,89.2234 50.5,96C 43.6667,97.1667 40.8333,94.3333 42,87.5C 49.0592,82.1091 56.3926,77.1091 64,72.5C 66.5891,66.9839 69.9225,61.9839 74,57.5C 74.6667,56.1667 74.6667,54.8333 74,53.5C 67.4579,52.527 61.4579,50.1937 56,46.5C 50.7839,51.8648 44.6172,55.8648 37.5,58.5C 36.5511,62.1429 37.5511,65.3096 40.5,68C 31.5339,70.6611 27.7005,67.4944 29,58.5C 33.1248,51.0807 37.6248,43.914 42.5,37C 55.5599,31.7083 68.5599,26.5417 81.5,21.5 Z M 56.5,54.5 C 59.2615,56.2116 62.2615,57.3782 65.5,58C 62.9426,60.8922 60.776,64.0589 59,67.5C 55.2136,68.7948 51.3803,68.7948 47.5,67.5C 45.8439,65.5878 45.5105,63.5878 46.5,61.5C 50.4285,59.8871 53.7618,57.5538 56.5,54.5 Z M 15.5,74.5 C 26.1719,74.3335 36.8385,74.5002 47.5,75C 44.073,76.796 40.9063,78.9627 38,81.5C 34.5184,87.653 34.6851,93.653 38.5,99.5C 43.0242,103.372 48.0242,104.206 53.5,102C 61.546,96.9768 69.8794,92.4768 78.5,88.5C 79.4988,99.4798 79.8321,110.48 79.5,121.5C 58.1667,121.5 36.8333,121.5 15.5,121.5C 15.5,105.833 15.5,90.1667 15.5,74.5 Z"></path>
    </g>
  </symbol>
  <symbol xmlns="http://www.w3.org/2000/svg" version="1.1" xmlns:xlink="http://www.w3.org/1999/xlink" viewBox="0 0 128px 128px" id="great">
    <g>
      <path fill="#000000" d="M 61.5,-0.5 C 62.8333,-0.5 64.1667,-0.5 65.5,-0.5C 65.5,3.16667 65.5,6.83333 65.5,10.5C 64.1667,10.5 62.8333,10.5 61.5,10.5C 61.5,6.83333 61.5,3.16667 61.5,-0.5 Z"></path>
    </g>
    <g>
      <path fill="#000000" d="M 38.5,3.5 C 39.8221,3.33003 40.9887,3.66337 42,4.5C 43.7275,7.61793 44.5608,10.9513 44.5,14.5C 42.8561,14.7135 41.3561,14.3802 40,13.5C 37.8615,10.3043 37.3615,6.97099 38.5,3.5 Z"></path>
    </g>
    <g>
      <path fill="#000000" d="M 85.5,3.5 C 89.0714,3.40766 90.2381,5.07432 89,8.5C 88.7444,12.7396 86.5777,14.7396 82.5,14.5C 82.6276,10.5832 83.6276,6.91656 85.5,3.5 Z"></path>
    </g>
    <g>
      <path fill="#000000" d="M 17.5,17.5 C 22.8333,18.1667 25.8333,21.1667 26.5,26.5C 21.1667,25.8333 18.1667,22.8333 17.5,17.5 Z"></path>
    </g>
    <g>
      <path fill="#000000" d="M 105.5,17.5 C 106.833,17.5 108.167,17.5 109.5,17.5C 108.833,22.8333 105.833,25.8333 100.5,26.5C 100.343,25.1266 100.51,23.7932 101,22.5C 102.707,20.9625 104.207,19.2959 105.5,17.5 Z"></path>
    </g>
    <g>
      <path fill="#000000" d="M 64.5,23.5 C 74.0779,23.9619 77.9112,28.9619 76,38.5C 75.0256,42.4208 73.859,46.2541 72.5,50C 80.5,50.3333 88.5,50.6667 96.5,51C 97.9308,51.4652 99.0975,52.2986 100,53.5C 101.151,57.8288 100.318,61.6621 97.5,65C 98.942,68.1283 98.442,70.9616 96,73.5C 94.9243,79.9501 93.591,86.2834 92,92.5C 91.0975,93.7014 89.9308,94.5348 88.5,95C 76.6439,95.782 64.8105,95.6153 53,94.5C 45.2783,98.8177 37.1117,99.6511 28.5,97C 27.1068,95.8289 26.2735,94.3289 26,92.5C 25.047,76.7658 25.3804,61.0991 27,45.5C 30.5566,43.0497 34.5566,42.0497 39,42.5C 41.5,42.6667 44,42.8333 46.5,43C 48.3687,44.6017 50.3687,45.6017 52.5,46C 58.4659,39.5692 62.4659,32.0692 64.5,23.5 Z M 67.5,29.5 C 70.2856,29.9564 71.619,31.6231 71.5,34.5C 70.3349,39.1605 69.1682,43.8272 68,48.5C 66.2458,50.25 64.0792,50.9167 61.5,50.5C 61.2865,52.1439 61.6198,53.6439 62.5,55C 73.1667,55.3333 83.8333,55.6667 94.5,56C 95.8333,57.3333 95.8333,58.6667 94.5,60C 91.1832,60.4983 87.8499,60.665 84.5,60.5C 84.2865,62.1439 84.6198,63.6439 85.5,65C 87.8333,65.3333 90.1667,65.6667 92.5,66C 93.8333,67.3333 93.8333,68.6667 92.5,70C 88.9106,70.2069 85.4106,70.7069 82,71.5C 81.3162,72.7839 81.4829,73.9505 82.5,75C 85.095,75.2256 87.595,75.7256 90,76.5C 90.6838,77.7839 90.5171,78.9505 89.5,80C 86.1832,80.4983 82.8499,80.665 79.5,80.5C 79.5,82.1667 79.5,83.8333 79.5,85.5C 81.8568,85.3367 84.1902,85.5034 86.5,86C 87.3802,87.3561 87.7135,88.8561 87.5,90.5C 77.1613,90.6665 66.828,90.4998 56.5,90C 54.8988,89.7266 53.3988,89.2266 52,88.5C 51.3333,77.1667 51.3333,65.8333 52,54.5C 59.7202,47.7216 64.8869,39.3883 67.5,29.5 Z M 32.5,47.5 C 37.0986,47.2 41.5986,47.5333 46,48.5C 46.8233,63.4079 46.6567,78.2413 45.5,93C 41.1667,93.6667 36.8333,93.6667 32.5,93C 32,92.5 31.5,92 31,91.5C 30.3333,77.5 30.3333,63.5 31,49.5C 31.7172,48.9558 32.2172,48.2891 32.5,47.5 Z"></path>
    </g>
    <g>
      <path fill="#000000" d="M 4.5,37.5 C 7.68827,37.6178 10.6883,38.4511 13.5,40C 14.3802,41.3561 14.7135,42.8561 14.5,44.5C 10.9513,44.5608 7.61793,43.7275 4.5,42C 3.27207,40.5098 3.27207,39.0098 4.5,37.5 Z"></path>
    </g>
    <g>
      <path fill="#000000" d="M 118.5,37.5 C 122.138,36.7366 123.638,38.0699 123,41.5C 119.794,43.5192 116.294,44.5192 112.5,44.5C 112.343,43.1266 112.51,41.7932 113,40.5C 114.876,39.3913 116.709,38.3913 118.5,37.5 Z"></path>
    </g>
    <g>
      <path fill="#000000" d="M -0.5,61.5 C 3.16667,61.5 6.83333,61.5 10.5,61.5C 10.5,62.8333 10.5,64.1667 10.5,65.5C 6.83333,65.5 3.16667,65.5 -0.5,65.5C -0.5,64.1667 -0.5,62.8333 -0.5,61.5 Z"></path>
    </g>
    <g>
      <path fill="#000000" d="M 127.5,61.5 C 127.5,62.8333 127.5,64.1667 127.5,65.5C 123.833,65.5 120.167,65.5 116.5,65.5C 116.5,64.1667 116.5,62.8333 116.5,61.5C 120.167,61.5 123.833,61.5 127.5,61.5 Z"></path>
    </g>
    <g>
      <path fill="#000000" d="M 9.5,82.5 C 11.1667,82.5 12.8333,82.5 14.5,82.5C 14.7135,84.1439 14.3802,85.6439 13.5,87C 10.4601,89.0314 7.29343,89.5314 4,88.5C 3.33333,87.5 3.33333,86.5 4,85.5C 6.05808,84.7709 7.89142,83.7709 9.5,82.5 Z"></path>
    </g>
    <g>
      <path fill="#000000" d="M 112.5,82.5 C 116.049,82.4392 119.382,83.2725 122.5,85C 124.063,87.4763 123.396,88.9763 120.5,89.5C 118.058,88.9639 115.725,88.1306 113.5,87C 112.62,85.6439 112.286,84.1439 112.5,82.5 Z"></path>
    </g>
    <g>
      <path fill="#000000" d="M 22.5,100.5 C 23.8333,100.5 25.1667,100.5 26.5,100.5C 25.8333,105.833 22.8333,108.833 17.5,109.5C 17.3433,108.127 17.51,106.793 18,105.5C 19.7073,103.963 21.2073,102.296 22.5,100.5 Z"></path>
    </g>
    <g>
      <path fill="#000000" d="M 100.5,100.5 C 105.833,101.167 108.833,104.167 109.5,109.5C 104.167,108.833 101.167,105.833 100.5,100.5 Z"></path>
    </g>
    <g>
      <path fill="#000000" d="M 40.5,112.5 C 41.8333,112.5 43.1667,112.5 44.5,112.5C 44.5608,116.049 43.7275,119.382 42,122.5C 39.5237,124.063 38.0237,123.396 37.5,120.5C 38.1137,117.655 39.1137,114.988 40.5,112.5 Z"></path>
    </g>
    <g>
      <path fill="#000000" d="M 82.5,112.5 C 84.1439,112.286 85.6439,112.62 87,113.5C 89.0314,116.54 89.5314,119.707 88.5,123C 87.2161,123.684 86.0495,123.517 85,122.5C 83.2725,119.382 82.4392,116.049 82.5,112.5 Z"></path>
    </g>
    <g>
      <path fill="#000000" d="M 65.5,127.5 C 64.1667,127.5 62.8333,127.5 61.5,127.5C 61.5,123.833 61.5,120.167 61.5,116.5C 62.8333,116.5 64.1667,116.5 65.5,116.5C 65.5,120.167 65.5,123.833 65.5,127.5 Z"></path>
    </g>
  </symbol>
  <symbol xmlns="http://www.w3.org/2000/svg" version="1.1" xmlns:xlink="http://www.w3.org/1999/xlink" viewBox="0 0 128px 128px" id="religion">
    <g>
      <path fill="#000000" d="M 53.5,-0.5 C 56.1667,-0.5 58.8333,-0.5 61.5,-0.5C 62.8333,2.16667 64.1667,2.16667 65.5,-0.5C 68.1667,-0.5 70.8333,-0.5 73.5,-0.5C 76.6113,1.68565 78.778,4.68565 80,8.5C 85.7232,23.6127 91.7232,38.6127 98,53.5C 102.214,70.1137 106.214,86.7804 110,103.5C 110.667,104.833 111.333,106.167 112,107.5C 117.397,112.729 122.564,118.062 127.5,123.5C 127.5,124.833 127.5,126.167 127.5,127.5C 126.167,127.5 124.833,127.5 123.5,127.5C 118.671,122.503 114.004,117.336 109.5,112C 100.119,112.554 90.7858,113.721 81.5,115.5C 82.7927,119.384 83.4593,123.384 83.5,127.5C 82.1667,127.5 80.8333,127.5 79.5,127.5C 78.0771,123.733 76.7437,119.899 75.5,116C 70.5504,111.213 66.5504,105.713 63.5,99.5C 60.4496,105.713 56.4496,111.213 51.5,116C 50.2563,119.899 48.9229,123.733 47.5,127.5C 46.1667,127.5 44.8333,127.5 43.5,127.5C 43.5407,123.384 44.2073,119.384 45.5,115.5C 36.2358,113.566 26.9025,112.399 17.5,112C 12.9961,117.336 8.32947,122.503 3.5,127.5C 2.16667,127.5 0.833333,127.5 -0.5,127.5C -0.5,126.167 -0.5,124.833 -0.5,123.5C 4.43612,118.062 9.60279,112.729 15,107.5C 15.6667,106.167 16.3333,104.833 17,103.5C 20.7865,86.7804 24.7865,70.1137 29,53.5C 36,36.5 43,19.5 50,2.5C 51.1451,1.36362 52.3117,0.363622 53.5,-0.5 Z M 55.5,4.5 C 57.1439,4.28649 58.6439,4.61983 60,5.5C 60.6667,8.16667 60.6667,10.8333 60,13.5C 56.8836,26.1959 52.2169,38.1959 46,49.5C 45.4065,55.1753 44.7398,60.842 44,66.5C 42.1775,72.1255 40.6775,77.7922 39.5,83.5C 42.2385,84.0352 44.0718,83.0352 45,80.5C 48.4181,70.0706 50.7514,59.404 52,48.5C 53.0295,45.1247 55.1961,43.9581 58.5,45C 60.0037,46.4907 60.8371,48.324 61,50.5C 61.8238,65.2404 61.1571,79.907 59,94.5C 57.4939,100.675 54.3272,105.842 49.5,110C 43.1461,109.888 36.8128,109.221 30.5,108C 27.2979,107.802 24.2979,106.969 21.5,105.5C 25.7779,89.6116 29.6112,73.6116 33,57.5C 39.2768,42.6127 45.2768,27.6127 51,12.5C 52.2587,9.64408 53.7587,6.97741 55.5,4.5 Z M 67.5,4.5 C 69.7224,4.17798 71.5557,4.84464 73,6.5C 80,23.5 87,40.5 94,57.5C 97.39,73.6192 101.223,89.6192 105.5,105.5C 104.975,106.192 104.308,106.692 103.5,107C 94.8712,108.662 86.2046,109.662 77.5,110C 71.2251,104.617 67.7251,97.7841 67,89.5C 65.7074,76.5204 65.3741,63.5204 66,50.5C 66.1107,46.0466 68.2774,44.2133 72.5,45C 73.7014,45.9025 74.5348,47.0692 75,48.5C 76.2486,59.404 78.5819,70.0706 82,80.5C 82.9282,83.0352 84.7615,84.0352 87.5,83.5C 86.3225,77.7922 84.8225,72.1255 83,66.5C 82.3266,59.7783 81.3266,53.1117 80,46.5C 73.4403,34.9939 68.9403,22.6606 66.5,9.5C 66.5916,7.74218 66.925,6.07551 67.5,4.5 Z M 62.5,22.5 C 63.4972,22.4701 64.1639,22.9701 64.5,24C 66.068,28.8707 67.7347,33.7041 69.5,38.5C 65.5,42.5 61.5,42.5 57.5,38.5C 59.5752,33.2755 61.2419,27.9422 62.5,22.5 Z"></path>
    </g>
  </symbol>
  <symbol xmlns="http://www.w3.org/2000/svg" version="1.1" xmlns:xlink="http://www.w3.org/1999/xlink" viewBox="0 0 128px 128px" id="thank-you">
    <g>
      <path fill="#000000" d="M 51.5,-0.5 C 59.5,-0.5 67.5,-0.5 75.5,-0.5C 83.9036,1.36104 91.7369,4.69438 99,9.5C 100.393,13.2017 99.226,15.2017 95.5,15.5C 85.403,10.6424 74.7363,7.97574 63.5,7.5C 53.2182,7.65373 43.5515,10.1537 34.5,15C 29.0168,15.508 27.3502,13.1746 29.5,8C 36.6067,4.24803 43.9401,1.41469 51.5,-0.5 Z"></path>
    </g>
    <g>
      <path fill="#000000" d="M 10.5,23.5 C 15.43,23.1975 20.2633,23.5308 25,24.5C 26.0904,27.579 25.2571,29.9124 22.5,31.5C 21.6687,38.8108 21.1687,46.1441 21,53.5C 18.9251,55.6483 16.5918,55.9817 14,54.5C 13.5003,46.8406 13.3336,39.1739 13.5,31.5C 12.1779,31.67 11.0113,31.3366 10,30.5C 9.29669,28.0709 9.46336,25.7375 10.5,23.5 Z"></path>
    </g>
    <g>
      <path fill="#000000" d="M 28.5,23.5 C 30.7925,23.2436 32.9592,23.5769 35,24.5C 35.4986,28.1516 35.6653,31.8183 35.5,35.5C 36.8333,35.5 38.1667,35.5 39.5,35.5C 39.3347,31.8183 39.5014,28.1516 40,24.5C 42.0639,23.4086 44.2305,23.2419 46.5,24C 47.8333,34.3333 47.8333,44.6667 46.5,55C 44.4325,55.6869 42.4325,55.5202 40.5,54.5C 39.5108,50.8927 39.1774,47.226 39.5,43.5C 38.1667,43.5 36.8333,43.5 35.5,43.5C 35.665,46.8499 35.4983,50.1832 35,53.5C 32.9251,55.6483 30.5918,55.9817 28,54.5C 27.1925,44.0899 27.3592,33.7565 28.5,23.5 Z"></path>
    </g>
    <g>
      <path fill="#000000" d="M 57.5,23.5 C 63.5895,22.1372 68.0895,24.1372 71,29.5C 71.6667,37.8333 71.6667,46.1667 71,54.5C 64.4712,56.1346 61.9712,53.4679 63.5,46.5C 62.1667,46.5 60.8333,46.5 59.5,46.5C 59.6641,49.1873 59.4974,51.854 59,54.5C 56.8683,55.7797 54.7016,55.7797 52.5,54.5C 51.3349,46.1866 51.1683,37.8533 52,29.5C 53.3597,26.9774 55.193,24.9774 57.5,23.5 Z M 60.5,31.5 C 61.4959,31.4142 62.3292,31.7476 63,32.5C 63.4955,34.4727 63.6621,36.4727 63.5,38.5C 62.1667,38.5 60.8333,38.5 59.5,38.5C 59.298,36.0504 59.6314,33.717 60.5,31.5 Z"></path>
    </g>
    <g>
      <path fill="#000000" d="M 76.5,23.5 C 78.5273,23.3379 80.5273,23.5045 82.5,24C 84.1274,26.7542 85.6274,29.5875 87,32.5C 87.2695,29.7759 87.7695,27.1092 88.5,24.5C 90.6948,23.2309 92.8615,23.2309 95,24.5C 95.8186,34.7438 95.652,44.9105 94.5,55C 92.8333,55.6667 91.1667,55.6667 89.5,55C 87.2879,52.0788 85.4545,48.9121 84,45.5C 83.6667,48.5 83.3333,51.5 83,54.5C 80.4082,55.9817 78.0749,55.6483 76,53.5C 75.2165,43.4531 75.3832,33.4531 76.5,23.5 Z"></path>
    </g>
    <g>
      <path fill="#000000" d="M 100.5,23.5 C 103.908,22.828 106.575,23.828 108.5,26.5C 110.834,23.6655 113.668,22.9988 117,24.5C 117.309,25.7659 117.809,26.9326 118.5,28C 116.041,31.75 113.708,35.5834 111.5,39.5C 113.708,43.4166 116.041,47.25 118.5,51C 115.609,56.7941 112.109,56.9607 108,51.5C 106.414,55.9542 103.747,56.6208 100,53.5C 99.2165,43.4531 99.3832,33.4531 100.5,23.5 Z"></path>
    </g>
    <g>
      <path fill="#000000" d="M 6.5,127.5 C 4.5,127.5 2.5,127.5 0.5,127.5C 0.5,126.833 0.166667,126.5 -0.5,126.5C -0.5,124.5 -0.5,122.5 -0.5,120.5C 3.99942,112.835 7.99942,104.835 11.5,96.5C 5.85594,88.548 1.85594,79.8813 -0.5,70.5C -0.5,65.8333 -0.5,61.1667 -0.5,56.5C 2.25847,54.9521 4.75847,55.2854 7,57.5C 7.35586,71.2434 12.0225,83.2434 21,93.5C 21.6667,95.1667 21.6667,96.8333 21,98.5C 18.8333,102.833 16.6667,107.167 14.5,111.5C 14.8333,111.833 15.1667,112.167 15.5,112.5C 21.285,109.273 27.285,106.606 33.5,104.5C 54.7213,114.351 75.5547,113.685 96,102.5C 100.834,103.823 101.667,106.49 98.5,110.5C 77.4851,121.349 55.9851,122.349 34,113.5C 24.5539,117.806 15.3872,122.472 6.5,127.5 Z"></path>
    </g>
    <g>
      <path fill="#000000" d="M 127.5,61.5 C 127.5,64.8333 127.5,68.1667 127.5,71.5C 125.912,77.735 123.246,83.5683 119.5,89C 115.803,90.1541 113.803,88.8207 113.5,85C 116.671,77.4861 118.838,69.6528 120,61.5C 122.479,58.9824 124.979,58.9824 127.5,61.5 Z"></path>
    </g>
    <g>
      <path fill="#000000" d="M 22.5,63.5 C 24.5273,63.3379 26.5273,63.5045 28.5,64C 30.0062,66.3333 31.6729,68.5 33.5,70.5C 35.3271,68.5 36.9938,66.3333 38.5,64C 44.6667,62.1667 46.8333,64.3333 45,70.5C 42.6667,73.8333 40.3333,77.1667 38,80.5C 37.8052,85.4179 37.3052,90.2512 36.5,95C 34.2305,95.7581 32.0639,95.5914 30,94.5C 29.6667,89.8333 29.3333,85.1667 29,80.5C 26.6667,77.1667 24.3333,73.8333 22,70.5C 21.2967,68.0709 21.4634,65.7375 22.5,63.5 Z"></path>
    </g>
    <g>
      <path fill="#000000" d="M 53.5,63.5 C 59.5895,62.1372 64.0895,64.1372 67,69.5C 67.6667,76.1667 67.6667,82.8333 67,89.5C 64.0812,95.0248 59.5812,96.8581 53.5,95C 51,93.8333 49.1667,92 48,89.5C 47.3333,82.8333 47.3333,76.1667 48,69.5C 49.3597,66.9774 51.193,64.9774 53.5,63.5 Z M 57.5,71.5 C 58.1174,71.6107 58.6174,71.944 59,72.5C 59.6667,77.1667 59.6667,81.8333 59,86.5C 58,87.8333 57,87.8333 56,86.5C 54.9548,81.2145 55.4548,76.2145 57.5,71.5 Z"></path>
    </g>
    <g>
      <path fill="#000000" d="M 73.5,63.5 C 75.4672,63.2606 77.3005,63.5939 79,64.5C 79.3333,71.5 79.6667,78.5 80,85.5C 80.6054,87.4812 81.6054,87.8146 83,86.5C 83.3333,79.5 83.6667,72.5 84,65.5C 86.0749,63.3517 88.4082,63.0183 91,64.5C 91.6667,73.1667 91.6667,81.8333 91,90.5C 87.6058,95.0821 83.1058,96.5821 77.5,95C 75,93.8333 73.1667,92 72,89.5C 71.3333,81.5 71.3333,73.5 72,65.5C 72.7172,64.9558 73.2172,64.2891 73.5,63.5 Z"></path>
    </g>
    <g>
      <path fill="#000000" d="M 99.5,63.5 C 103.162,62.6371 105.328,63.9704 106,67.5C 106.914,72.1964 106.414,76.6964 104.5,81C 101.975,81.8959 99.8083,81.3959 98,79.5C 96.9456,73.8855 97.4456,68.5522 99.5,63.5 Z"></path>
    </g>
    <g>
      <path fill="#000000" d="M 99.5,85.5 C 103.781,84.4832 106.114,86.1499 106.5,90.5C 105.663,95.3187 102.996,96.6521 98.5,94.5C 96.992,91.2313 97.3254,88.2313 99.5,85.5 Z"></path>
    </g>
  </symbol>
</svg>