<?xml version="1.0" encoding="UTF-8"?>
<!DOCTYPE svg PUBLIC "-//W3C//DTD SVG 1.1//EN" "http://www.w3.org/Graphics/SVG/1.1/DTD/svg11.dtd">
<svg xmlns="http://www.w3.org/2000/svg" version="1.1" width="128px" height="128px" style="shape-rendering:geometricPrecision; text-rendering:geometricPrecision; image-rendering:optimizeQuality; fill-rule:evenodd; clip-rule:evenodd" xmlns:xlink="http://www.w3.org/1999/xlink">
<g><path style="opacity:0.878" fill="#000000" d="M 75.5,-0.5 C 77.1667,-0.5 78.8333,-0.5 80.5,-0.5C 86.8287,5.99617 92.9953,12.6628 99,19.5C 99.387,23.165 97.887,25.9984 94.5,28C 96.6079,28.3599 98.6079,29.0266 100.5,30C 107.667,37.1667 114.833,44.3333 122,51.5C 122.5,61.828 122.666,72.1613 122.5,82.5C 120.833,82.5 119.167,82.5 117.5,82.5C 117.5,74.1667 117.5,65.8333 117.5,57.5C 81.5,57.5 45.5,57.5 9.5,57.5C 9.5,79.1667 9.5,100.833 9.5,122.5C 45.5,122.5 81.5,122.5 117.5,122.5C 117.334,114.16 117.5,105.827 118,97.5C 119.049,96.4829 120.216,96.3162 121.5,97C 122.486,107.084 122.819,117.251 122.5,127.5C 83.1667,127.5 43.8333,127.5 4.5,127.5C 4.33336,102.164 4.50003,76.8311 5,51.5C 12.1667,44.3333 19.3333,37.1667 26.5,30C 33.3938,28.7403 40.3938,28.0737 47.5,28C 57.0356,18.6317 66.3689,9.13171 75.5,-0.5 Z M 77.5,6.5 C 82.6313,11.1302 87.6313,15.9635 92.5,21C 86.1667,27.3333 79.8333,33.6667 73.5,40C 66.8333,40.6667 60.1667,40.6667 53.5,40C 51.3619,38.5784 50.1953,36.745 50,34.5C 59.3689,25.2984 68.5356,15.965 77.5,6.5 Z M 30.5,34.5 C 34.1667,34.5 37.8333,34.5 41.5,34.5C 41.393,36.9032 42.393,38.7365 44.5,40C 41.5184,40.498 38.5184,40.6646 35.5,40.5C 35.1412,42.7659 35.8078,44.5993 37.5,46C 54.8333,46.6667 72.1667,46.6667 89.5,46C 91.1922,44.5993 91.8588,42.7659 91.5,40.5C 82.2486,42.0138 80.9152,40.1804 87.5,35C 90.5,34.3333 93.5,34.3333 96.5,35C 101.833,40.3333 107.167,45.6667 112.5,51C 79.8333,51.6667 47.1667,51.6667 14.5,51C 20.0363,45.6314 25.3697,40.1314 30.5,34.5 Z"/></g>
<g><path style="opacity:0.805" fill="#000000" d="M 57.5,67.5 C 79.662,67.1602 88.4953,77.8268 84,99.5C 76.7264,111.147 66.5598,114.647 53.5,110C 42.8842,103.851 39.0509,94.6843 42,82.5C 45.1058,75.2253 50.2724,70.2253 57.5,67.5 Z M 58.5,73.5 C 73.3137,72.8129 80.147,79.8129 79,94.5C 76.2413,101.478 71.0747,105.478 63.5,106.5C 48.729,103.218 44.229,94.551 50,80.5C 52.4412,77.5464 55.2745,75.2131 58.5,73.5 Z"/></g>
<g><path style="opacity:0.771" fill="#000000" d="M 68.5,81.5 C 70.1992,81.3398 71.8659,81.5065 73.5,82C 74.5171,83.0495 74.6838,84.2161 74,85.5C 70.5,89 67,92.5 63.5,96C 58.197,96.238 54.5303,93.738 52.5,88.5C 53.384,86.058 55.0507,85.2246 57.5,86C 58.6667,87.1667 59.8333,88.3333 61,89.5C 63.705,86.9638 66.205,84.2971 68.5,81.5 Z"/></g>
<g><path style="opacity:0.683" fill="#000000" d="M 118.5,86.5 C 122.068,86.7593 123.401,88.7593 122.5,92.5C 120.833,92.5 119.167,92.5 117.5,92.5C 117.325,90.3792 117.659,88.3792 118.5,86.5 Z"/></g>
</svg>
