<?xml version="1.0" encoding="UTF-8"?>
<!DOCTYPE svg PUBLIC "-//W3C//DTD SVG 1.1//EN" "http://www.w3.org/Graphics/SVG/1.1/DTD/svg11.dtd">
<svg xmlns="http://www.w3.org/2000/svg" version="1.1" width="128px" height="128px" style="shape-rendering:geometricPrecision; text-rendering:geometricPrecision; image-rendering:optimizeQuality; fill-rule:evenodd; clip-rule:evenodd" xmlns:xlink="http://www.w3.org/1999/xlink">
<g><path style="opacity:0.97" fill="#000000" d="M 22.5,-0.5 C 52.1667,-0.5 81.8333,-0.5 111.5,-0.5C 111.5,6.16667 111.5,12.8333 111.5,19.5C 110.167,19.5 108.833,19.5 107.5,19.5C 107.5,14.1667 107.5,8.83333 107.5,3.5C 80.8333,3.5 54.1667,3.5 27.5,3.5C 27.5,27.5 27.5,51.5 27.5,75.5C 26.1667,75.5 24.8333,75.5 23.5,75.5C 23.6666,52.1643 23.5,28.831 23,5.5C 21.4728,7.22096 20.4728,9.22096 20,11.5C 19.3333,38.8333 19.3333,66.1667 20,93.5C 21,92.8333 22,92.1667 23,91.5C 23.4988,87.5138 23.6655,83.5138 23.5,79.5C 24.8333,79.5 26.1667,79.5 27.5,79.5C 27.5,83.5 27.5,87.5 27.5,91.5C 54.1667,91.5 80.8333,91.5 107.5,91.5C 107.5,68.8333 107.5,46.1667 107.5,23.5C 108.833,23.5 110.167,23.5 111.5,23.5C 111.667,47.5023 111.5,71.5023 111,95.5C 109.299,97.9 108.466,100.567 108.5,103.5C 109.507,107.509 110.507,111.509 111.5,115.5C 86.1667,115.5 60.8333,115.5 35.5,115.5C 35.5,119.5 35.5,123.5 35.5,127.5C 34.1667,127.5 32.8333,127.5 31.5,127.5C 30.1667,124.833 28.8333,124.833 27.5,127.5C 26.1667,127.5 24.8333,127.5 23.5,127.5C 23.6655,123.486 23.4988,119.486 23,115.5C 20,113.833 17.6667,111.5 16,108.5C 15.3333,74.5 15.3333,40.5 16,6.5C 17.6941,3.64238 19.8607,1.30904 22.5,-0.5 Z M 65.5,23.5 C 66.8333,23.5 68.1667,23.5 69.5,23.5C 69.5,27.5 69.5,31.5 69.5,35.5C 73.5,35.5 77.5,35.5 81.5,35.5C 81.5,36.8333 81.5,38.1667 81.5,39.5C 77.5,39.5 73.5,39.5 69.5,39.5C 69.5,50.1667 69.5,60.8333 69.5,71.5C 68.1667,71.5 66.8333,71.5 65.5,71.5C 65.5,60.8333 65.5,50.1667 65.5,39.5C 61.5,39.5 57.5,39.5 53.5,39.5C 53.5,38.1667 53.5,36.8333 53.5,35.5C 57.5,35.5 61.5,35.5 65.5,35.5C 65.5,31.5 65.5,27.5 65.5,23.5 Z M 27.5,95.5 C 53.1753,95.1669 78.842,95.5002 104.5,96.5C 103.167,101.167 103.167,105.833 104.5,110.5C 81.5097,111.5 58.5097,111.833 35.5,111.5C 35.5,109.5 35.5,107.5 35.5,105.5C 44.8333,105.5 54.1667,105.5 63.5,105.5C 63.5,104.167 63.5,102.833 63.5,101.5C 50.1667,101.5 36.8333,101.5 23.5,101.5C 23.6641,104.187 23.4974,106.854 23,109.5C 18.7114,102.827 20.2114,98.1603 27.5,95.5 Z M 27.5,105.5 C 28.8333,105.5 30.1667,105.5 31.5,105.5C 31.5,110.167 31.5,114.833 31.5,119.5C 30.1667,119.5 28.8333,119.5 27.5,119.5C 27.5,114.833 27.5,110.167 27.5,105.5 Z"/></g>
<g><path style="opacity:0.983" fill="#000000" d="M 61.5,19.5 C 65.5,19.5 69.5,19.5 73.5,19.5C 73.5,23.5 73.5,27.5 73.5,31.5C 77.5,31.5 81.5,31.5 85.5,31.5C 85.5,35.5 85.5,39.5 85.5,43.5C 81.5,43.5 77.5,43.5 73.5,43.5C 73.5,54.1667 73.5,64.8333 73.5,75.5C 69.5,75.5 65.5,75.5 61.5,75.5C 61.5,64.8333 61.5,54.1667 61.5,43.5C 57.5,43.5 53.5,43.5 49.5,43.5C 49.5,39.5 49.5,35.5 49.5,31.5C 53.5,31.5 57.5,31.5 61.5,31.5C 61.5,27.5 61.5,23.5 61.5,19.5 Z M 65.5,23.5 C 65.5,27.5 65.5,31.5 65.5,35.5C 61.5,35.5 57.5,35.5 53.5,35.5C 53.5,36.8333 53.5,38.1667 53.5,39.5C 57.5,39.5 61.5,39.5 65.5,39.5C 65.5,50.1667 65.5,60.8333 65.5,71.5C 66.8333,71.5 68.1667,71.5 69.5,71.5C 69.5,60.8333 69.5,50.1667 69.5,39.5C 73.5,39.5 77.5,39.5 81.5,39.5C 81.5,38.1667 81.5,36.8333 81.5,35.5C 77.5,35.5 73.5,35.5 69.5,35.5C 69.5,31.5 69.5,27.5 69.5,23.5C 68.1667,23.5 66.8333,23.5 65.5,23.5 Z"/></g>
<g><path style="opacity:0.973" fill="#000000" d="M 67.5,101.5 C 78.1667,101.5 88.8333,101.5 99.5,101.5C 99.5,102.833 99.5,104.167 99.5,105.5C 88.8333,105.5 78.1667,105.5 67.5,105.5C 67.5,104.167 67.5,102.833 67.5,101.5 Z"/></g>
</svg>
