<?xml version="1.0" encoding="UTF-8"?>
<!DOCTYPE svg PUBLIC "-//W3C//DTD SVG 1.1//EN" "http://www.w3.org/Graphics/SVG/1.1/DTD/svg11.dtd">
<svg xmlns="http://www.w3.org/2000/svg" version="1.1" width="128px" height="128px" style="shape-rendering:geometricPrecision; text-rendering:geometricPrecision; image-rendering:optimizeQuality; fill-rule:evenodd; clip-rule:evenodd" xmlns:xlink="http://www.w3.org/1999/xlink">
<g><path style="opacity:0.749" fill="#000000" d="M 56.5,9.5 C 57.8333,9.5 59.1667,9.5 60.5,9.5C 60.665,12.8499 60.4983,16.1832 60,19.5C 58.9887,20.3366 57.8221,20.67 56.5,20.5C 56.5,16.8333 56.5,13.1667 56.5,9.5 Z"/></g>
<g><path style="opacity:0.634" fill="#000000" d="M 45.5,10.5 C 50.0567,12.3834 52.7234,15.7167 53.5,20.5C 49.8527,20.3784 47.0194,18.7118 45,15.5C 44.3603,13.735 44.5269,12.0683 45.5,10.5 Z"/></g>
<g><path style="opacity:0.732" fill="#000000" d="M 69.5,10.5 C 71.7029,11.0516 72.5362,12.3849 72,14.5C 69.7928,17.564 66.9594,19.564 63.5,20.5C 63.3433,19.1266 63.51,17.7932 64,16.5C 66.0396,14.6298 67.8729,12.6298 69.5,10.5 Z"/></g>
<g><path style="opacity:0.755" fill="#000000" d="M 25.5,17.5 C 37.5155,16.9197 48.5155,19.9197 58.5,26.5C 70.6601,18.264 83.8267,15.9307 98,19.5C 98.3333,22.5 98.6667,25.5 99,28.5C 100.713,29.8782 102.047,31.5448 103,33.5C 103.333,47.8333 103.667,62.1667 104,76.5C 107.867,78.0034 111.033,80.3368 113.5,83.5C 106.734,94.7759 99.7342,105.943 92.5,117C 91.1667,117.667 89.8333,117.667 88.5,117C 84.7557,114.045 80.9224,111.211 77,108.5C 76.2797,106.888 76.4464,105.388 77.5,104C 69.4568,102.319 63.1235,98.1527 58.5,91.5C 45.1791,90.6673 31.8458,90.1673 18.5,90C 17.0692,89.5348 15.9025,88.7014 15,87.5C 13.3602,69.2572 13.0269,50.9239 14,32.5C 14.6667,30.5 16,29.1667 18,28.5C 18.3333,25.5 18.6667,22.5 19,19.5C 21.277,18.8828 23.4437,18.2161 25.5,17.5 Z M 23.5,22.5 C 35.2571,21.1059 45.9238,23.7726 55.5,30.5C 56.8333,47.5 56.8333,64.5 55.5,81.5C 45.4543,76.3972 34.7876,74.0638 23.5,74.5C 23.5,57.1667 23.5,39.8333 23.5,22.5 Z M 77.5,22.5 C 82.8333,22.5 88.1667,22.5 93.5,22.5C 93.6666,35.5043 93.4999,48.5043 93,61.5C 91.5949,55.6177 89.5949,49.951 87,44.5C 79.5396,40.368 75.0396,42.368 73.5,50.5C 74.3201,55.4622 75.6534,60.2956 77.5,65C 75.484,68.5975 74.1507,72.4308 73.5,76.5C 69.3378,77.7763 65.3378,79.443 61.5,81.5C 60.3337,64.5098 60.1671,47.5098 61,30.5C 66.1738,26.9542 71.6738,24.2875 77.5,22.5 Z M 17.5,35.5 C 18.3312,49.6608 18.8312,63.9941 19,78.5C 31.4069,78.1816 43.2402,80.6816 54.5,86C 43.5,86.6667 32.5,86.6667 21.5,86C 20.0692,85.5348 18.9025,84.7014 18,83.5C 17.5001,67.5035 17.3334,51.5035 17.5,35.5 Z M 80.5,46.5 C 81.7206,47.0283 82.8873,47.695 84,48.5C 87.2337,56.1994 89.2337,64.1994 90,72.5C 91.1667,74.8333 92.3333,77.1667 93.5,79.5C 89.3713,86.7907 84.5379,93.4574 79,99.5C 71.3624,98.0134 65.5291,94.0134 61.5,87.5C 65.4231,83.8744 70.0898,81.8744 75.5,81.5C 75.3784,84.2574 76.5451,86.2574 79,87.5C 79.8333,86.6667 80.6667,85.8333 81.5,85C 80.1058,82.1508 79.1058,79.1508 78.5,76C 78.9711,72.4058 80.3045,69.2391 82.5,66.5C 80.8333,61.1667 79.1667,55.8333 77.5,50.5C 77.7867,48.5567 78.7867,47.2233 80.5,46.5 Z M 99.5,79.5 C 102.475,80.6551 105.142,82.3218 107.5,84.5C 101.865,93.9663 96.0312,103.3 90,112.5C 87.2567,110.212 84.4233,108.045 81.5,106C 87.7212,97.2857 93.7212,88.4523 99.5,79.5 Z"/></g>
<g><path style="opacity:0.783" fill="#000000" d="M 38.5,36.5 C 39.5,36.5 40.5,36.5 41.5,36.5C 40.5024,42.1675 42.8357,44.5008 48.5,43.5C 48.5,44.8333 48.5,46.1667 48.5,47.5C 46.1667,47.5 43.8333,47.5 41.5,47.5C 41.5,53.1667 41.5,58.8333 41.5,64.5C 40.1667,64.5 38.8333,64.5 37.5,64.5C 37.5,58.5 37.5,52.5 37.5,46.5C 35.4727,46.6621 33.4727,46.4955 31.5,46C 30.3772,41.6396 32.0439,40.473 36.5,42.5C 37.2945,40.5049 37.9612,38.5049 38.5,36.5 Z"/></g>
<g><path style="opacity:0.546" fill="#000000" d="M 24.5,99.5 C 25.8333,99.5 27.1667,99.5 28.5,99.5C 28.7778,101.346 28.1112,102.68 26.5,103.5C 24.8888,102.68 24.2222,101.346 24.5,99.5 Z"/></g>
<g><path style="opacity:0.725" fill="#000000" d="M 48.5,99.5 C 51.8333,100.833 55.1667,100.833 58.5,99.5C 57.1667,102.833 57.1667,106.167 58.5,109.5C 55.1667,108.167 51.8333,108.167 48.5,109.5C 49.8333,106.167 49.8333,102.833 48.5,99.5 Z"/></g>
<g><path style="opacity:0.547" fill="#000000" d="M 86.5,104.5 C 87.8333,104.5 89.1667,104.5 90.5,104.5C 90.7778,106.346 90.1112,107.68 88.5,108.5C 86.8888,107.68 86.2222,106.346 86.5,104.5 Z"/></g>
</svg>
