<?xml version="1.0" encoding="UTF-8"?>
<!DOCTYPE svg PUBLIC "-//W3C//DTD SVG 1.1//EN" "http://www.w3.org/Graphics/SVG/1.1/DTD/svg11.dtd">
<svg xmlns="http://www.w3.org/2000/svg" version="1.1" width="128px" height="128px" style="shape-rendering:geometricPrecision; text-rendering:geometricPrecision; image-rendering:optimizeQuality; fill-rule:evenodd; clip-rule:evenodd" xmlns:xlink="http://www.w3.org/1999/xlink">
<g><path style="opacity:0.784" fill="#000000" d="M 50.5,-0.5 C 53.1667,-0.5 55.8333,-0.5 58.5,-0.5C 59.4577,0.961599 60.6244,2.29493 62,3.5C 62.1922,5.5767 62.6922,7.5767 63.5,9.5C 72.8592,12.8592 79.1926,19.1926 82.5,28.5C 87.1879,32.0224 88.6879,36.6891 87,42.5C 86.1729,43.6621 85.3396,44.8288 84.5,46C 86.1576,51.7419 86.6576,57.5752 86,63.5C 84.6667,64.8333 83.3333,64.8333 82,63.5C 81.6749,57.0842 80.8416,50.7509 79.5,44.5C 78.1779,44.67 77.0113,44.3366 76,43.5C 75.7306,50.542 75.064,57.542 74,64.5C 73.1667,66.1667 72.3333,67.8333 71.5,69.5C 74.4854,70.9074 76.9854,72.9074 79,75.5C 80.1316,73.6608 80.9649,71.6608 81.5,69.5C 82.6888,68.5713 84.0222,68.238 85.5,68.5C 85.7683,71.1194 85.435,73.6194 84.5,76C 89.6336,77.0876 91.6336,80.2542 90.5,85.5C 92.6547,85.372 94.6547,85.872 96.5,87C 104.44,96.071 104.44,105.071 96.5,114C 92.6824,114.565 90.0157,116.565 88.5,120C 84.7018,121.783 80.7018,122.616 76.5,122.5C 76.2865,120.856 76.6198,119.356 77.5,118C 80.1677,117.433 82.8344,116.933 85.5,116.5C 84.9293,109.609 83.596,102.943 81.5,96.5C 81.6667,94.1667 81.8333,91.8333 82,89.5C 82.3678,88.09 83.2011,87.09 84.5,86.5C 85.4519,84.9547 85.7852,83.288 85.5,81.5C 76.0877,83.1158 66.7544,85.1158 57.5,87.5C 56.5011,99.1477 56.1678,110.814 56.5,122.5C 60.9168,121.883 65.2501,120.883 69.5,119.5C 71.9803,120.415 72.6469,121.915 71.5,124C 67.3773,125.192 63.3773,126.359 59.5,127.5C 56.1667,127.5 52.8333,127.5 49.5,127.5C 40.368,125.036 31.0347,122.87 21.5,121C 19.3291,119.826 18.3291,117.993 18.5,115.5C 15.1379,115.93 12.3046,114.93 10,112.5C 7.405,109.083 5.905,105.249 5.5,101C 6.46712,94.7248 9.46712,89.7248 14.5,86C 15.7932,85.51 17.1266,85.3433 18.5,85.5C 18.3367,83.1432 18.5034,80.8098 19,78.5C 20.1096,76.9632 21.6096,76.2965 23.5,76.5C 20.9929,66.6883 20.9929,56.8549 23.5,47C 23.1416,44.9676 22.3083,43.1343 21,41.5C 20.3333,39.5 20.3333,37.5 21,35.5C 24.618,29.0191 28.7846,22.8524 33.5,17C 35.4731,16.4622 36.4731,17.2956 36.5,19.5C 35.4017,21.7751 34.0683,23.9417 32.5,26C 33.1667,26.1667 33.8333,26.3333 34.5,26.5C 41.0821,25.0587 47.7488,24.392 54.5,24.5C 61.9124,24.613 69.2457,25.113 76.5,26C 67.4815,13.4338 55.9815,10.2672 42,16.5C 39.8125,15.9407 39.1458,14.6073 40,12.5C 41.6667,11.5 43.3333,10.5 45,9.5C 45.2614,5.14379 47.0947,1.81045 50.5,-0.5 Z M 53.5,3.5 C 56.4734,3.96513 57.6401,5.6318 57,8.5C 55.2041,7.23302 53.3707,7.23302 51.5,8.5C 50.4173,7.63505 50.2506,6.63505 51,5.5C 51.9947,4.93406 52.828,4.26739 53.5,3.5 Z M 53.5,28.5 C 59.0102,28.4163 61.3435,31.0829 60.5,36.5C 56.5,36.5 52.5,36.5 48.5,36.5C 48.5,34.1667 48.5,31.8333 48.5,29.5C 50.4147,29.7845 52.0813,29.4511 53.5,28.5 Z M 41.5,29.5 C 42.7251,30.1522 43.3917,31.3189 43.5,33C 43.3333,34.1667 43.1667,35.3333 43,36.5C 40.6667,37.1667 38.3333,37.8333 36,38.5C 36.2554,35.9184 36.422,33.2518 36.5,30.5C 38.4147,30.7845 40.0813,30.4511 41.5,29.5 Z M 64.5,29.5 C 70.3984,29.0923 73.065,31.759 72.5,37.5C 70.1667,37.5 67.8333,37.5 65.5,37.5C 65.1667,34.8333 64.8333,32.1667 64.5,29.5 Z M 28.5,32.5 C 29.5,32.5 30.5,32.5 31.5,32.5C 31.5,34.8333 31.5,37.1667 31.5,39.5C 29.5,39.8333 27.5,40.1667 25.5,40.5C 25.0156,37.2118 26.0156,34.5452 28.5,32.5 Z M 77.5,32.5 C 81.1467,32.8133 83.1467,34.8133 83.5,38.5C 83.1667,39.5 82.5,40.1667 81.5,40.5C 80.2638,39.7542 78.9305,39.4208 77.5,39.5C 77.5,37.1667 77.5,34.8333 77.5,32.5 Z M 41.5,41.5 C 43.1992,41.3398 44.8659,41.5065 46.5,42C 42.8333,43.6667 39.1667,45.3333 35.5,47C 32.4455,54.9539 33.1121,62.6206 37.5,70C 33.5013,70.6678 30.668,72.8345 29,76.5C 26.0065,65.9012 25.8399,55.2346 28.5,44.5C 33.0348,43.8632 37.3681,42.8632 41.5,41.5 Z M 55.5,41.5 C 60.547,41.3375 65.547,41.6708 70.5,42.5C 70.6661,48.1764 70.4994,53.8431 70,59.5C 69.3667,64.6116 66.8667,68.445 62.5,71C 56.8333,71.6667 51.1667,71.6667 45.5,71C 38.7505,65.6149 36.7505,58.7816 39.5,50.5C 45.5122,48.4994 50.8455,45.4994 55.5,41.5 Z M 51.5,63.5 C 53.0348,62.2121 54.7015,62.2121 56.5,63.5C 54.8327,64.6664 53.166,64.6664 51.5,63.5 Z M 35.5,75.5 C 46.3371,76.63 57.1704,76.63 68,75.5C 70.6636,75.1912 72.8302,76.0246 74.5,78C 67.9905,80.127 61.3238,81.627 54.5,82.5C 47.5141,81.8393 40.8475,80.1727 34.5,77.5C 34.8627,76.8165 35.1961,76.1499 35.5,75.5 Z M 23.5,81.5 C 32.7858,83.0568 41.9524,85.0568 51,87.5C 51.8325,99.1809 51.6659,110.848 50.5,122.5C 41.8333,120.5 33.1667,118.5 24.5,116.5C 23.343,113.216 23.1764,109.882 24,106.5C 24.6667,105.833 25.3333,105.167 26,104.5C 26.6667,99.1667 26.6667,93.8333 26,88.5C 23.8634,86.6789 23.0301,84.3456 23.5,81.5 Z M 15.5,90.5 C 17.7925,90.2436 19.9592,90.5769 22,91.5C 22.7886,95.0915 22.6219,98.5915 21.5,102C 13.9921,103.141 11.4921,99.9745 14,92.5C 14.7172,91.9558 15.2172,91.2891 15.5,90.5 Z M 86.5,90.5 C 94.9967,90.4572 97.3301,94.2906 93.5,102C 91.1902,102.497 88.8568,102.663 86.5,102.5C 86.5,98.5 86.5,94.5 86.5,90.5 Z M 12.5,106.5 C 14.4352,107.15 16.4352,107.483 18.5,107.5C 18.6567,108.873 18.49,110.207 18,111.5C 15.3885,110.623 13.5551,108.957 12.5,106.5 Z M 94.5,106.5 C 95.2389,106.369 95.9056,106.536 96.5,107C 94.9571,108.878 93.1238,110.378 91,111.5C 90.51,110.207 90.3433,108.873 90.5,107.5C 92.099,107.768 93.4324,107.434 94.5,106.5 Z"/></g>
<g><path style="opacity:0.769" fill="#000000" d="M 115.5,23.5 C 117.467,23.2606 119.301,23.5939 121,24.5C 121.89,31.914 121.557,39.2473 120,46.5C 114.029,51.106 109.863,49.7727 107.5,42.5C 108.586,37.7817 111.586,35.7817 116.5,36.5C 116.664,33.8127 116.497,31.146 116,28.5C 112.411,30.5297 108.578,31.863 104.5,32.5C 104.666,38.8421 104.5,45.1754 104,51.5C 100.791,56.258 97.1247,56.5913 93,52.5C 90.3999,46.0295 92.5666,42.6961 99.5,42.5C 99.3345,38.4862 99.5012,34.4862 100,30.5C 105.007,27.6706 110.174,25.3373 115.5,23.5 Z M 113.5,41.5 C 116.674,41.9522 117.007,42.9522 114.5,44.5C 112.481,43.8671 112.147,42.8671 113.5,41.5 Z M 97.5,46.5 C 99.8519,47.5426 100.019,48.8759 98,50.5C 96.2317,49.3181 96.0651,47.9848 97.5,46.5 Z"/></g>
<g><path style="opacity:0.611" fill="#000000" d="M 44.5,50.5 C 48.6759,49.8307 50.0093,51.3307 48.5,55C 47.2068,55.49 45.8734,55.6567 44.5,55.5C 44.5,53.8333 44.5,52.1667 44.5,50.5 Z"/></g>
<g><path style="opacity:0.611" fill="#000000" d="M 59.5,50.5 C 63.6759,49.8307 65.0093,51.3307 63.5,55C 62.2068,55.49 60.8734,55.6567 59.5,55.5C 59.5,53.8333 59.5,52.1667 59.5,50.5 Z"/></g>
<g><path style="opacity:0.754" fill="#000000" d="M 48.5,57.5 C 52.5138,57.3345 56.5138,57.5012 60.5,58C 62.6533,60.6166 62.82,63.45 61,66.5C 55.967,70.7793 51.3003,70.4459 47,65.5C 46.1093,62.5024 46.6093,59.8357 48.5,57.5 Z M 51.5,63.5 C 53.166,64.6664 54.8327,64.6664 56.5,63.5C 54.7015,62.2121 53.0348,62.2121 51.5,63.5 Z"/></g>
<g><path style="opacity:0.726" fill="#000000" d="M 29.5,89.5 C 34.5881,89.7507 39.5881,90.584 44.5,92C 47.2486,94.4231 46.7486,95.9231 43,96.5C 39.1384,95.7944 35.3051,94.961 31.5,94C 29.8934,92.951 29.2267,91.451 29.5,89.5 Z"/></g>
<g><path style="opacity:0.708" fill="#000000" d="M 30.5,101.5 C 35.5344,102.474 40.5344,103.641 45.5,105C 47,107.167 46.5,108.667 44,109.5C 39.2048,108.259 34.3715,107.259 29.5,106.5C 29.366,104.708 29.6993,103.042 30.5,101.5 Z"/></g>
</svg>
