<?xml version="1.0" encoding="UTF-8"?>
<!DOCTYPE svg PUBLIC "-//W3C//DTD SVG 1.1//EN" "http://www.w3.org/Graphics/SVG/1.1/DTD/svg11.dtd">
<svg xmlns="http://www.w3.org/2000/svg" version="1.1" width="128px" height="128px" style="shape-rendering:geometricPrecision; text-rendering:geometricPrecision; image-rendering:optimizeQuality; fill-rule:evenodd; clip-rule:evenodd" xmlns:xlink="http://www.w3.org/1999/xlink">
<g><path style="opacity:0.844" fill="#000000" d="M 85.5,-0.5 C 87.1667,-0.5 88.8333,-0.5 90.5,-0.5C 102.649,5.06964 114.982,10.403 127.5,15.5C 127.5,22.1667 127.5,28.8333 127.5,35.5C 125.99,36.8361 124.323,38.0027 122.5,39C 120.005,39.1575 117.672,39.3241 115.5,39.5C 110.119,53.2706 102.953,65.9373 94,77.5C 91.146,79.5977 88.4794,81.931 86,84.5C 85.5001,96.8288 85.3335,109.162 85.5,121.5C 88.5184,121.335 91.5184,121.502 94.5,122C 95.4061,123.699 95.7394,125.533 95.5,127.5C 63.5,127.5 31.5,127.5 -0.5,127.5C -0.5,125.833 -0.5,124.167 -0.5,122.5C 2.72797,121.586 6.06131,121.253 9.5,121.5C 9.18068,104.119 9.51401,86.7861 10.5,69.5C 14.7956,68.6725 19.1289,68.1725 23.5,68C 21.1137,63.9409 20.947,59.7742 23,55.5C 27.3853,46.5565 32.8853,38.3898 39.5,31C 50.7552,26.4704 62.0885,22.137 73.5,18C 73.0945,16.1971 73.5945,14.3638 75,12.5C 78.5083,8.13612 82.0083,3.80278 85.5,-0.5 Z M 87.5,6.5 C 98.6956,10.4281 109.696,14.9281 120.5,20C 121.464,24.0659 121.797,28.2325 121.5,32.5C 108.033,27.4345 95.0333,21.2678 82.5,14C 84.4146,11.6004 86.0812,9.10039 87.5,6.5 Z M 81.5,21.5 C 90.718,26.0258 99.8847,30.6925 109,35.5C 104.25,51.8192 95.7502,65.9859 83.5,78C 72.0515,83.2234 61.0515,89.2234 50.5,96C 43.6667,97.1667 40.8333,94.3333 42,87.5C 49.0592,82.1091 56.3926,77.1091 64,72.5C 66.5891,66.9839 69.9225,61.9839 74,57.5C 74.6667,56.1667 74.6667,54.8333 74,53.5C 67.4579,52.527 61.4579,50.1937 56,46.5C 50.7839,51.8648 44.6172,55.8648 37.5,58.5C 36.5511,62.1429 37.5511,65.3096 40.5,68C 31.5339,70.6611 27.7005,67.4944 29,58.5C 33.1248,51.0807 37.6248,43.914 42.5,37C 55.5599,31.7083 68.5599,26.5417 81.5,21.5 Z M 56.5,54.5 C 59.2615,56.2116 62.2615,57.3782 65.5,58C 62.9426,60.8922 60.776,64.0589 59,67.5C 55.2136,68.7948 51.3803,68.7948 47.5,67.5C 45.8439,65.5878 45.5105,63.5878 46.5,61.5C 50.4285,59.8871 53.7618,57.5538 56.5,54.5 Z M 15.5,74.5 C 26.1719,74.3335 36.8385,74.5002 47.5,75C 44.073,76.796 40.9063,78.9627 38,81.5C 34.5184,87.653 34.6851,93.653 38.5,99.5C 43.0242,103.372 48.0242,104.206 53.5,102C 61.546,96.9768 69.8794,92.4768 78.5,88.5C 79.4988,99.4798 79.8321,110.48 79.5,121.5C 58.1667,121.5 36.8333,121.5 15.5,121.5C 15.5,105.833 15.5,90.1667 15.5,74.5 Z"/></g>
</svg>
