<?xml version="1.0" encoding="UTF-8"?>
<!DOCTYPE svg PUBLIC "-//W3C//DTD SVG 1.1//EN" "http://www.w3.org/Graphics/SVG/1.1/DTD/svg11.dtd">
<svg xmlns="http://www.w3.org/2000/svg" version="1.1" width="128px" height="128px" style="shape-rendering:geometricPrecision; text-rendering:geometricPrecision; image-rendering:optimizeQuality; fill-rule:evenodd; clip-rule:evenodd" xmlns:xlink="http://www.w3.org/1999/xlink">
<g><path style="opacity:0.863" fill="#000000" d="M 61.5,-0.5 C 62.8333,-0.5 64.1667,-0.5 65.5,-0.5C 65.5,3.16667 65.5,6.83333 65.5,10.5C 64.1667,10.5 62.8333,10.5 61.5,10.5C 61.5,6.83333 61.5,3.16667 61.5,-0.5 Z"/></g>
<g><path style="opacity:0.704" fill="#000000" d="M 38.5,3.5 C 39.8221,3.33003 40.9887,3.66337 42,4.5C 43.7275,7.61793 44.5608,10.9513 44.5,14.5C 42.8561,14.7135 41.3561,14.3802 40,13.5C 37.8615,10.3043 37.3615,6.97099 38.5,3.5 Z"/></g>
<g><path style="opacity:0.704" fill="#000000" d="M 85.5,3.5 C 89.0714,3.40766 90.2381,5.07432 89,8.5C 88.7444,12.7396 86.5777,14.7396 82.5,14.5C 82.6276,10.5832 83.6276,6.91656 85.5,3.5 Z"/></g>
<g><path style="opacity:0.745" fill="#000000" d="M 17.5,17.5 C 22.8333,18.1667 25.8333,21.1667 26.5,26.5C 21.1667,25.8333 18.1667,22.8333 17.5,17.5 Z"/></g>
<g><path style="opacity:0.745" fill="#000000" d="M 105.5,17.5 C 106.833,17.5 108.167,17.5 109.5,17.5C 108.833,22.8333 105.833,25.8333 100.5,26.5C 100.343,25.1266 100.51,23.7932 101,22.5C 102.707,20.9625 104.207,19.2959 105.5,17.5 Z"/></g>
<g><path style="opacity:0.789" fill="#000000" d="M 64.5,23.5 C 74.0779,23.9619 77.9112,28.9619 76,38.5C 75.0256,42.4208 73.859,46.2541 72.5,50C 80.5,50.3333 88.5,50.6667 96.5,51C 97.9308,51.4652 99.0975,52.2986 100,53.5C 101.151,57.8288 100.318,61.6621 97.5,65C 98.942,68.1283 98.442,70.9616 96,73.5C 94.9243,79.9501 93.591,86.2834 92,92.5C 91.0975,93.7014 89.9308,94.5348 88.5,95C 76.6439,95.782 64.8105,95.6153 53,94.5C 45.2783,98.8177 37.1117,99.6511 28.5,97C 27.1068,95.8289 26.2735,94.3289 26,92.5C 25.047,76.7658 25.3804,61.0991 27,45.5C 30.5566,43.0497 34.5566,42.0497 39,42.5C 41.5,42.6667 44,42.8333 46.5,43C 48.3687,44.6017 50.3687,45.6017 52.5,46C 58.4659,39.5692 62.4659,32.0692 64.5,23.5 Z M 67.5,29.5 C 70.2856,29.9564 71.619,31.6231 71.5,34.5C 70.3349,39.1605 69.1682,43.8272 68,48.5C 66.2458,50.25 64.0792,50.9167 61.5,50.5C 61.2865,52.1439 61.6198,53.6439 62.5,55C 73.1667,55.3333 83.8333,55.6667 94.5,56C 95.8333,57.3333 95.8333,58.6667 94.5,60C 91.1832,60.4983 87.8499,60.665 84.5,60.5C 84.2865,62.1439 84.6198,63.6439 85.5,65C 87.8333,65.3333 90.1667,65.6667 92.5,66C 93.8333,67.3333 93.8333,68.6667 92.5,70C 88.9106,70.2069 85.4106,70.7069 82,71.5C 81.3162,72.7839 81.4829,73.9505 82.5,75C 85.095,75.2256 87.595,75.7256 90,76.5C 90.6838,77.7839 90.5171,78.9505 89.5,80C 86.1832,80.4983 82.8499,80.665 79.5,80.5C 79.5,82.1667 79.5,83.8333 79.5,85.5C 81.8568,85.3367 84.1902,85.5034 86.5,86C 87.3802,87.3561 87.7135,88.8561 87.5,90.5C 77.1613,90.6665 66.828,90.4998 56.5,90C 54.8988,89.7266 53.3988,89.2266 52,88.5C 51.3333,77.1667 51.3333,65.8333 52,54.5C 59.7202,47.7216 64.8869,39.3883 67.5,29.5 Z M 32.5,47.5 C 37.0986,47.2 41.5986,47.5333 46,48.5C 46.8233,63.4079 46.6567,78.2413 45.5,93C 41.1667,93.6667 36.8333,93.6667 32.5,93C 32,92.5 31.5,92 31,91.5C 30.3333,77.5 30.3333,63.5 31,49.5C 31.7172,48.9558 32.2172,48.2891 32.5,47.5 Z"/></g>
<g><path style="opacity:0.704" fill="#000000" d="M 4.5,37.5 C 7.68827,37.6178 10.6883,38.4511 13.5,40C 14.3802,41.3561 14.7135,42.8561 14.5,44.5C 10.9513,44.5608 7.61793,43.7275 4.5,42C 3.27207,40.5098 3.27207,39.0098 4.5,37.5 Z"/></g>
<g><path style="opacity:0.704" fill="#000000" d="M 118.5,37.5 C 122.138,36.7366 123.638,38.0699 123,41.5C 119.794,43.5192 116.294,44.5192 112.5,44.5C 112.343,43.1266 112.51,41.7932 113,40.5C 114.876,39.3913 116.709,38.3913 118.5,37.5 Z"/></g>
<g><path style="opacity:0.885" fill="#000000" d="M -0.5,61.5 C 3.16667,61.5 6.83333,61.5 10.5,61.5C 10.5,62.8333 10.5,64.1667 10.5,65.5C 6.83333,65.5 3.16667,65.5 -0.5,65.5C -0.5,64.1667 -0.5,62.8333 -0.5,61.5 Z"/></g>
<g><path style="opacity:0.885" fill="#000000" d="M 127.5,61.5 C 127.5,62.8333 127.5,64.1667 127.5,65.5C 123.833,65.5 120.167,65.5 116.5,65.5C 116.5,64.1667 116.5,62.8333 116.5,61.5C 120.167,61.5 123.833,61.5 127.5,61.5 Z"/></g>
<g><path style="opacity:0.704" fill="#000000" d="M 9.5,82.5 C 11.1667,82.5 12.8333,82.5 14.5,82.5C 14.7135,84.1439 14.3802,85.6439 13.5,87C 10.4601,89.0314 7.29343,89.5314 4,88.5C 3.33333,87.5 3.33333,86.5 4,85.5C 6.05808,84.7709 7.89142,83.7709 9.5,82.5 Z"/></g>
<g><path style="opacity:0.704" fill="#000000" d="M 112.5,82.5 C 116.049,82.4392 119.382,83.2725 122.5,85C 124.063,87.4763 123.396,88.9763 120.5,89.5C 118.058,88.9639 115.725,88.1306 113.5,87C 112.62,85.6439 112.286,84.1439 112.5,82.5 Z"/></g>
<g><path style="opacity:0.745" fill="#000000" d="M 22.5,100.5 C 23.8333,100.5 25.1667,100.5 26.5,100.5C 25.8333,105.833 22.8333,108.833 17.5,109.5C 17.3433,108.127 17.51,106.793 18,105.5C 19.7073,103.963 21.2073,102.296 22.5,100.5 Z"/></g>
<g><path style="opacity:0.745" fill="#000000" d="M 100.5,100.5 C 105.833,101.167 108.833,104.167 109.5,109.5C 104.167,108.833 101.167,105.833 100.5,100.5 Z"/></g>
<g><path style="opacity:0.704" fill="#000000" d="M 40.5,112.5 C 41.8333,112.5 43.1667,112.5 44.5,112.5C 44.5608,116.049 43.7275,119.382 42,122.5C 39.5237,124.063 38.0237,123.396 37.5,120.5C 38.1137,117.655 39.1137,114.988 40.5,112.5 Z"/></g>
<g><path style="opacity:0.704" fill="#000000" d="M 82.5,112.5 C 84.1439,112.286 85.6439,112.62 87,113.5C 89.0314,116.54 89.5314,119.707 88.5,123C 87.2161,123.684 86.0495,123.517 85,122.5C 83.2725,119.382 82.4392,116.049 82.5,112.5 Z"/></g>
<g><path style="opacity:0.885" fill="#000000" d="M 65.5,127.5 C 64.1667,127.5 62.8333,127.5 61.5,127.5C 61.5,123.833 61.5,120.167 61.5,116.5C 62.8333,116.5 64.1667,116.5 65.5,116.5C 65.5,120.167 65.5,123.833 65.5,127.5 Z"/></g>
</svg>
