<?xml version="1.0" encoding="UTF-8"?>
<!DOCTYPE svg PUBLIC "-//W3C//DTD SVG 1.1//EN" "http://www.w3.org/Graphics/SVG/1.1/DTD/svg11.dtd">
<svg xmlns="http://www.w3.org/2000/svg" version="1.1" width="128px" height="128px" style="shape-rendering:geometricPrecision; text-rendering:geometricPrecision; image-rendering:optimizeQuality; fill-rule:evenodd; clip-rule:evenodd" xmlns:xlink="http://www.w3.org/1999/xlink">
<g><path style="opacity:0.87" fill="#000000" d="M 51.5,-0.5 C 59.5,-0.5 67.5,-0.5 75.5,-0.5C 83.9036,1.36104 91.7369,4.69438 99,9.5C 100.393,13.2017 99.226,15.2017 95.5,15.5C 85.403,10.6424 74.7363,7.97574 63.5,7.5C 53.2182,7.65373 43.5515,10.1537 34.5,15C 29.0168,15.508 27.3502,13.1746 29.5,8C 36.6067,4.24803 43.9401,1.41469 51.5,-0.5 Z"/></g>
<g><path style="opacity:0.896" fill="#000000" d="M 10.5,23.5 C 15.43,23.1975 20.2633,23.5308 25,24.5C 26.0904,27.579 25.2571,29.9124 22.5,31.5C 21.6687,38.8108 21.1687,46.1441 21,53.5C 18.9251,55.6483 16.5918,55.9817 14,54.5C 13.5003,46.8406 13.3336,39.1739 13.5,31.5C 12.1779,31.67 11.0113,31.3366 10,30.5C 9.29669,28.0709 9.46336,25.7375 10.5,23.5 Z"/></g>
<g><path style="opacity:0.906" fill="#000000" d="M 28.5,23.5 C 30.7925,23.2436 32.9592,23.5769 35,24.5C 35.4986,28.1516 35.6653,31.8183 35.5,35.5C 36.8333,35.5 38.1667,35.5 39.5,35.5C 39.3347,31.8183 39.5014,28.1516 40,24.5C 42.0639,23.4086 44.2305,23.2419 46.5,24C 47.8333,34.3333 47.8333,44.6667 46.5,55C 44.4325,55.6869 42.4325,55.5202 40.5,54.5C 39.5108,50.8927 39.1774,47.226 39.5,43.5C 38.1667,43.5 36.8333,43.5 35.5,43.5C 35.665,46.8499 35.4983,50.1832 35,53.5C 32.9251,55.6483 30.5918,55.9817 28,54.5C 27.1925,44.0899 27.3592,33.7565 28.5,23.5 Z"/></g>
<g><path style="opacity:0.913" fill="#000000" d="M 57.5,23.5 C 63.5895,22.1372 68.0895,24.1372 71,29.5C 71.6667,37.8333 71.6667,46.1667 71,54.5C 64.4712,56.1346 61.9712,53.4679 63.5,46.5C 62.1667,46.5 60.8333,46.5 59.5,46.5C 59.6641,49.1873 59.4974,51.854 59,54.5C 56.8683,55.7797 54.7016,55.7797 52.5,54.5C 51.3349,46.1866 51.1683,37.8533 52,29.5C 53.3597,26.9774 55.193,24.9774 57.5,23.5 Z M 60.5,31.5 C 61.4959,31.4142 62.3292,31.7476 63,32.5C 63.4955,34.4727 63.6621,36.4727 63.5,38.5C 62.1667,38.5 60.8333,38.5 59.5,38.5C 59.298,36.0504 59.6314,33.717 60.5,31.5 Z"/></g>
<g><path style="opacity:0.915" fill="#000000" d="M 76.5,23.5 C 78.5273,23.3379 80.5273,23.5045 82.5,24C 84.1274,26.7542 85.6274,29.5875 87,32.5C 87.2695,29.7759 87.7695,27.1092 88.5,24.5C 90.6948,23.2309 92.8615,23.2309 95,24.5C 95.8186,34.7438 95.652,44.9105 94.5,55C 92.8333,55.6667 91.1667,55.6667 89.5,55C 87.2879,52.0788 85.4545,48.9121 84,45.5C 83.6667,48.5 83.3333,51.5 83,54.5C 80.4082,55.9817 78.0749,55.6483 76,53.5C 75.2165,43.4531 75.3832,33.4531 76.5,23.5 Z"/></g>
<g><path style="opacity:0.874" fill="#000000" d="M 100.5,23.5 C 103.908,22.828 106.575,23.828 108.5,26.5C 110.834,23.6655 113.668,22.9988 117,24.5C 117.309,25.7659 117.809,26.9326 118.5,28C 116.041,31.75 113.708,35.5834 111.5,39.5C 113.708,43.4166 116.041,47.25 118.5,51C 115.609,56.7941 112.109,56.9607 108,51.5C 106.414,55.9542 103.747,56.6208 100,53.5C 99.2165,43.4531 99.3832,33.4531 100.5,23.5 Z"/></g>
<g><path style="opacity:0.866" fill="#000000" d="M 6.5,127.5 C 4.5,127.5 2.5,127.5 0.5,127.5C 0.5,126.833 0.166667,126.5 -0.5,126.5C -0.5,124.5 -0.5,122.5 -0.5,120.5C 3.99942,112.835 7.99942,104.835 11.5,96.5C 5.85594,88.548 1.85594,79.8813 -0.5,70.5C -0.5,65.8333 -0.5,61.1667 -0.5,56.5C 2.25847,54.9521 4.75847,55.2854 7,57.5C 7.35586,71.2434 12.0225,83.2434 21,93.5C 21.6667,95.1667 21.6667,96.8333 21,98.5C 18.8333,102.833 16.6667,107.167 14.5,111.5C 14.8333,111.833 15.1667,112.167 15.5,112.5C 21.285,109.273 27.285,106.606 33.5,104.5C 54.7213,114.351 75.5547,113.685 96,102.5C 100.834,103.823 101.667,106.49 98.5,110.5C 77.4851,121.349 55.9851,122.349 34,113.5C 24.5539,117.806 15.3872,122.472 6.5,127.5 Z"/></g>
<g><path style="opacity:0.84" fill="#000000" d="M 127.5,61.5 C 127.5,64.8333 127.5,68.1667 127.5,71.5C 125.912,77.735 123.246,83.5683 119.5,89C 115.803,90.1541 113.803,88.8207 113.5,85C 116.671,77.4861 118.838,69.6528 120,61.5C 122.479,58.9824 124.979,58.9824 127.5,61.5 Z"/></g>
<g><path style="opacity:0.854" fill="#000000" d="M 22.5,63.5 C 24.5273,63.3379 26.5273,63.5045 28.5,64C 30.0062,66.3333 31.6729,68.5 33.5,70.5C 35.3271,68.5 36.9938,66.3333 38.5,64C 44.6667,62.1667 46.8333,64.3333 45,70.5C 42.6667,73.8333 40.3333,77.1667 38,80.5C 37.8052,85.4179 37.3052,90.2512 36.5,95C 34.2305,95.7581 32.0639,95.5914 30,94.5C 29.6667,89.8333 29.3333,85.1667 29,80.5C 26.6667,77.1667 24.3333,73.8333 22,70.5C 21.2967,68.0709 21.4634,65.7375 22.5,63.5 Z"/></g>
<g><path style="opacity:0.901" fill="#000000" d="M 53.5,63.5 C 59.5895,62.1372 64.0895,64.1372 67,69.5C 67.6667,76.1667 67.6667,82.8333 67,89.5C 64.0812,95.0248 59.5812,96.8581 53.5,95C 51,93.8333 49.1667,92 48,89.5C 47.3333,82.8333 47.3333,76.1667 48,69.5C 49.3597,66.9774 51.193,64.9774 53.5,63.5 Z M 57.5,71.5 C 58.1174,71.6107 58.6174,71.944 59,72.5C 59.6667,77.1667 59.6667,81.8333 59,86.5C 58,87.8333 57,87.8333 56,86.5C 54.9548,81.2145 55.4548,76.2145 57.5,71.5 Z"/></g>
<g><path style="opacity:0.899" fill="#000000" d="M 73.5,63.5 C 75.4672,63.2606 77.3005,63.5939 79,64.5C 79.3333,71.5 79.6667,78.5 80,85.5C 80.6054,87.4812 81.6054,87.8146 83,86.5C 83.3333,79.5 83.6667,72.5 84,65.5C 86.0749,63.3517 88.4082,63.0183 91,64.5C 91.6667,73.1667 91.6667,81.8333 91,90.5C 87.6058,95.0821 83.1058,96.5821 77.5,95C 75,93.8333 73.1667,92 72,89.5C 71.3333,81.5 71.3333,73.5 72,65.5C 72.7172,64.9558 73.2172,64.2891 73.5,63.5 Z"/></g>
<g><path style="opacity:0.814" fill="#000000" d="M 99.5,63.5 C 103.162,62.6371 105.328,63.9704 106,67.5C 106.914,72.1964 106.414,76.6964 104.5,81C 101.975,81.8959 99.8083,81.3959 98,79.5C 96.9456,73.8855 97.4456,68.5522 99.5,63.5 Z"/></g>
<g><path style="opacity:0.781" fill="#000000" d="M 99.5,85.5 C 103.781,84.4832 106.114,86.1499 106.5,90.5C 105.663,95.3187 102.996,96.6521 98.5,94.5C 96.992,91.2313 97.3254,88.2313 99.5,85.5 Z"/></g>
</svg>
