<?xml version="1.0" encoding="UTF-8"?>
<!DOCTYPE svg PUBLIC "-//W3C//DTD SVG 1.1//EN" "http://www.w3.org/Graphics/SVG/1.1/DTD/svg11.dtd">
<svg xmlns="http://www.w3.org/2000/svg" version="1.1" width="128px" height="128px" style="shape-rendering:geometricPrecision; text-rendering:geometricPrecision; image-rendering:optimizeQuality; fill-rule:evenodd; clip-rule:evenodd" xmlns:xlink="http://www.w3.org/1999/xlink">
<g><path style="opacity:0.899" fill="#ffe370" d="M 38.5,-0.5 C 40.1667,-0.5 41.8333,-0.5 43.5,-0.5C 46.1288,2.63064 48.9621,5.63064 52,8.5C 53.261,14.0798 51.0943,15.9132 45.5,14C 41.7297,10.9029 38.7297,7.23621 36.5,3C 36.9783,1.69736 37.645,0.530694 38.5,-0.5 Z"/></g>
<g><path style="opacity:0.935" fill="#ffe470" d="M 60.5,-0.5 C 61.5,-0.5 62.5,-0.5 63.5,-0.5C 63.5,4.5 63.5,9.5 63.5,14.5C 62.1779,14.67 61.0113,14.3366 60,13.5C 59.2266,8.74815 59.3932,4.08148 60.5,-0.5 Z"/></g>
<g><path style="opacity:1" fill="#ffc672" d="M 63.5,-0.5 C 64.5,-0.5 65.5,-0.5 66.5,-0.5C 67.6068,4.08148 67.7734,8.74815 67,13.5C 65.9887,14.3366 64.8221,14.67 63.5,14.5C 63.5,9.5 63.5,4.5 63.5,-0.5 Z"/></g>
<g><path style="opacity:0.876" fill="#ffc373" d="M 83.5,-0.5 C 85.1667,-0.5 86.8333,-0.5 88.5,-0.5C 90.9213,1.62304 91.0879,3.95637 89,6.5C 86.1509,10.2028 82.6509,12.8695 78.5,14.5C 74.774,14.2017 73.6073,12.2017 75,8.5C 78.0379,5.63064 80.8712,2.63064 83.5,-0.5 Z"/></g>
<g><path style="opacity:0.971" fill="#eaeaef" d="M 63.5,32.5 C 63.5,36.1667 63.5,39.8333 63.5,43.5C 43.9182,34.1241 23.2515,29.4574 1.5,29.5C 13.0876,18.6833 26.7543,14.85 42.5,18C 51.2783,20.379 58.2783,25.2123 63.5,32.5 Z"/></g>
<g><path style="opacity:0.999" fill="#cfdce2" d="M 125.5,29.5 C 103.945,28.9727 83.6114,33.6394 64.5,43.5C 64.1667,43.5 63.8333,43.5 63.5,43.5C 63.5,39.8333 63.5,36.1667 63.5,32.5C 76.3985,17.1871 92.3985,13.0205 111.5,20C 117.099,21.9533 121.766,25.12 125.5,29.5 Z"/></g>
<g><path style="opacity:1" fill="#4b2746" d="M 125.5,29.5 C 126.167,29.8333 126.833,30.1667 127.5,30.5C 127.5,57.5 127.5,84.5 127.5,111.5C 114.742,112.682 102.075,114.849 89.5,118C 81.2883,120.119 73.6217,123.285 66.5,127.5C 65.5,127.5 64.5,127.5 63.5,127.5C 63.1756,99.4261 63.5089,71.4261 64.5,43.5C 83.6114,33.6394 103.945,28.9727 125.5,29.5 Z"/></g>
<g><path style="opacity:0.997" fill="#704c55" d="M 1.5,29.5 C 23.2515,29.4574 43.9182,34.1241 63.5,43.5C 63.8333,43.5 64.1667,43.5 64.5,43.5C 63.5089,71.4261 63.1756,99.4261 63.5,127.5C 62.5,127.5 61.5,127.5 60.5,127.5C 52.3736,122.951 43.707,119.451 34.5,117C 22.8344,114.706 11.1677,112.873 -0.5,111.5C -0.5,84.5 -0.5,57.5 -0.5,30.5C 0.166667,30.1667 0.833333,29.8333 1.5,29.5 Z"/></g>
<g><path style="opacity:1" fill="#f5da6d" d="M 93.5,52.5 C 94.1499,67.5381 93.4833,82.2048 91.5,96.5C 90.8826,96.3893 90.3826,96.056 90,95.5C 89.5003,87.8406 89.3336,80.1739 89.5,72.5C 85.7786,73.1876 82.112,74.1876 78.5,75.5C 74.1813,74.2105 73.5146,71.8771 76.5,68.5C 80.6036,66.3912 84.9369,65.0579 89.5,64.5C 89.335,61.1501 89.5017,57.8168 90,54.5C 90.8159,53.1772 91.9826,52.5106 93.5,52.5 Z"/></g>
<g><path style="opacity:1" fill="#f9c071" d="M 93.5,52.5 C 95.1238,52.3601 96.2904,53.0267 97,54.5C 97.4966,56.8098 97.6633,59.1432 97.5,61.5C 101.832,60.9035 106.165,60.7368 110.5,61C 113.167,63.3333 113.167,65.6667 110.5,68C 106.24,68.5698 102.074,69.4031 98,70.5C 97.6667,78.8333 97.3333,87.1667 97,95.5C 95.3221,97.5532 93.4888,97.8866 91.5,96.5C 93.4833,82.2048 94.1499,67.5381 93.5,52.5 Z"/></g>
</svg>
