<?xml version="1.0" encoding="UTF-8"?>
<!DOCTYPE svg PUBLIC "-//W3C//DTD SVG 1.1//EN" "http://www.w3.org/Graphics/SVG/1.1/DTD/svg11.dtd">
<svg xmlns="http://www.w3.org/2000/svg" version="1.1" width="128px" height="128px" style="shape-rendering:geometricPrecision; text-rendering:geometricPrecision; image-rendering:optimizeQuality; fill-rule:evenodd; clip-rule:evenodd" xmlns:xlink="http://www.w3.org/1999/xlink">
<g><path style="opacity:0.919" fill="#090607" d="M 50.5,-0.5 C 53.1667,-0.5 55.8333,-0.5 58.5,-0.5C 59.4577,0.961599 60.6244,2.29493 62,3.5C 62.1922,5.5767 62.6922,7.5767 63.5,9.5C 72.8592,12.8592 79.1926,19.1926 82.5,28.5C 87.1879,32.0224 88.6879,36.6891 87,42.5C 86.1729,43.6621 85.3396,44.8288 84.5,46C 86.1576,51.7419 86.6576,57.5752 86,63.5C 85.6174,64.056 85.1174,64.3893 84.5,64.5C 82.6443,58.078 81.311,51.4114 80.5,44.5C 78.5,44.1667 76.5,43.8333 74.5,43.5C 74.6662,49.8421 74.4995,56.1754 74,62.5C 73.3605,65.1123 72.1938,67.4457 70.5,69.5C 74.5518,70.9308 77.3851,73.5974 79,77.5C 80.2985,74.9938 81.2985,72.3272 82,69.5C 82.6708,68.7476 83.5041,68.4142 84.5,68.5C 85.8143,70.8953 85.8143,73.3953 84.5,76C 89.6336,77.0876 91.6336,80.2542 90.5,85.5C 92.6547,85.372 94.6547,85.872 96.5,87C 104.44,96.071 104.44,105.071 96.5,114C 92.6824,114.565 90.0157,116.565 88.5,120C 84.5223,122.171 80.5223,122.671 76.5,121.5C 76.4142,120.504 76.7476,119.671 77.5,119C 80.1168,118.178 82.7835,117.678 85.5,117.5C 85.6653,113.818 85.4986,110.152 85,106.5C 84.3333,105.833 83.6667,105.167 83,104.5C 82.8333,101.833 82.6667,99.1667 82.5,96.5C 82.5487,90.8733 83.5487,85.5399 85.5,80.5C 75.8619,82.6066 66.1952,84.6066 56.5,86.5C 55.5048,98.6554 55.1714,110.989 55.5,123.5C 56.791,123.737 57.791,123.404 58.5,122.5C 61.8651,122.046 65.1985,121.38 68.5,120.5C 70.1143,120.803 71.4477,121.47 72.5,122.5C 72.3893,123.117 72.056,123.617 71.5,124C 67.3773,125.192 63.3773,126.359 59.5,127.5C 56.1667,127.5 52.8333,127.5 49.5,127.5C 40.368,125.036 31.0347,122.87 21.5,121C 19.3291,119.826 18.3291,117.993 18.5,115.5C 15.1379,115.93 12.3046,114.93 10,112.5C 7.405,109.083 5.905,105.249 5.5,101C 6.46712,94.7248 9.46712,89.7248 14.5,86C 15.7932,85.51 17.1266,85.3433 18.5,85.5C 18.3367,83.1432 18.5034,80.8098 19,78.5C 20.1096,76.9632 21.6096,76.2965 23.5,76.5C 20.9929,66.6883 20.9929,56.8549 23.5,47C 23.1416,44.9676 22.3083,43.1343 21,41.5C 20.3333,39.5 20.3333,37.5 21,35.5C 24.7353,30.9877 27.7353,25.9877 30,20.5C 31.6024,17.6261 33.769,16.6261 36.5,17.5C 36.6495,18.552 36.4828,19.552 36,20.5C 33.1068,22.279 31.9401,24.6123 32.5,27.5C 44.0043,24.3608 55.671,23.6942 67.5,25.5C 70.6335,26.7432 73.9668,27.2432 77.5,27C 73.3681,20.038 67.3681,15.538 59.5,13.5C 53.4573,11.8882 47.624,12.5549 42,15.5C 41.0979,15.2568 40.2646,14.9234 39.5,14.5C 39.4142,13.5041 39.7476,12.6708 40.5,12C 44.7296,10.3905 46.8962,7.22383 47,2.5C 48.1451,1.36362 49.3117,0.363622 50.5,-0.5 Z"/></g>
<g><path style="opacity:1" fill="#c2dbde" d="M 51.5,3.5 C 55.8514,2.53296 58.1847,4.19963 58.5,8.5C 55.8333,8.5 53.1667,8.5 50.5,8.5C 50.366,6.70848 50.6993,5.04181 51.5,3.5 Z"/></g>
<g><path style="opacity:0.995" fill="#f94553" d="M 59.5,13.5 C 63.1985,16.5449 66.1985,20.2115 68.5,24.5C 68.3764,25.1067 68.0431,25.44 67.5,25.5C 55.671,23.6942 44.0043,24.3608 32.5,27.5C 31.9401,24.6123 33.1068,22.279 36,20.5C 36.4828,19.552 36.6495,18.552 36.5,17.5C 37.1667,16.1667 38.1667,15.1667 39.5,14.5C 40.2646,14.9234 41.0979,15.2568 42,15.5C 47.624,12.5549 53.4573,11.8882 59.5,13.5 Z"/></g>
<g><path style="opacity:1" fill="#b7222d" d="M 59.5,13.5 C 67.3681,15.538 73.3681,20.038 77.5,27C 73.9668,27.2432 70.6335,26.7432 67.5,25.5C 68.0431,25.44 68.3764,25.1067 68.5,24.5C 66.1985,20.2115 63.1985,16.5449 59.5,13.5 Z"/></g>
<g><path style="opacity:0.791" fill="#010101" d="M 115.5,23.5 C 117.467,23.2606 119.301,23.5939 121,24.5C 121.89,31.914 121.557,39.2473 120,46.5C 114.029,51.106 109.863,49.7727 107.5,42.5C 108.586,37.7817 111.586,35.7817 116.5,36.5C 116.664,33.8127 116.497,31.146 116,28.5C 112.411,30.5297 108.578,31.863 104.5,32.5C 104.666,38.8421 104.5,45.1754 104,51.5C 100.791,56.258 97.1247,56.5913 93,52.5C 90.3999,46.0295 92.5666,42.6961 99.5,42.5C 99.3345,38.4862 99.5012,34.4862 100,30.5C 105.007,27.6706 110.174,25.3373 115.5,23.5 Z"/></g>
<g><path style="opacity:1" fill="#f2efef" d="M 60.5,31.5 C 60.5,33.1667 60.5,34.8333 60.5,36.5C 56.1667,36.5 51.8333,36.5 47.5,36.5C 47.5,33.8333 47.5,31.1667 47.5,28.5C 51.8333,28.5 56.1667,28.5 60.5,28.5C 60.5,29.5 60.5,30.5 60.5,31.5 Z"/></g>
<g><path style="opacity:1" fill="#e4e1e1" d="M 36.5,29.5 C 39.1667,29.5 41.8333,29.5 44.5,29.5C 44.5,32.1667 44.5,34.8333 44.5,37.5C 41.7508,37.2739 39.0841,37.6072 36.5,38.5C 35.2588,35.463 35.2588,32.463 36.5,29.5 Z"/></g>
<g><path style="opacity:1" fill="#ebe8e8" d="M 64.5,29.5 C 71.5,28.5 74.5,31.5 73.5,38.5C 70.4824,38.2962 67.4824,37.9629 64.5,37.5C 64.5,34.8333 64.5,32.1667 64.5,29.5 Z"/></g>
<g><path style="opacity:1" fill="#e6e3e3" d="M 28.5,31.5 C 29.5,31.5 30.5,31.5 31.5,31.5C 31.8134,34.2469 31.48,36.9135 30.5,39.5C 28.5914,40.3482 26.5914,40.6816 24.5,40.5C 24.3398,38.8008 24.5065,37.1341 25,35.5C 26.3756,34.2949 27.5423,32.9616 28.5,31.5 Z"/></g>
<g><path style="opacity:1" fill="#ccdadc" d="M 76.5,31.5 C 81.9222,31.9856 84.2556,34.9856 83.5,40.5C 81.2075,40.7564 79.0408,40.4231 77,39.5C 76.5026,36.854 76.3359,34.1873 76.5,31.5 Z"/></g>
<g><path style="opacity:1" fill="#585757" d="M 60.5,31.5 C 61.4614,33.2646 61.7947,35.2646 61.5,37.5C 56.6367,37.8195 51.97,37.4861 47.5,36.5C 51.8333,36.5 56.1667,36.5 60.5,36.5C 60.5,34.8333 60.5,33.1667 60.5,31.5 Z"/></g>
<g><path style="opacity:1" fill="#5f5860" d="M 43.5,40.5 C 45.1992,40.3398 46.8659,40.5065 48.5,41C 44.0487,43.641 39.5487,46.141 35,48.5C 34.3333,53.5 34.3333,58.5 35,63.5C 35.5163,66.0336 36.683,68.2002 38.5,70C 34.1571,71.0095 30.9904,73.5095 29,77.5C 26.0378,66.9496 25.7045,56.283 28,45.5C 32.9623,43.0141 38.129,41.3474 43.5,40.5 Z"/></g>
<g><path style="opacity:1" fill="#f3c3b5" d="M 55.5,40.5 C 60.518,40.6133 65.518,40.9466 70.5,41.5C 70.6663,48.5079 70.4996,55.5079 70,62.5C 68.8022,66.7459 66.3022,69.9125 62.5,72C 44.6849,75.8524 36.5183,68.6857 38,50.5C 44.4342,48.0384 50.2676,44.7051 55.5,40.5 Z"/></g>
<g><path style="opacity:1" fill="#615b63" d="M 113.5,40.5 C 115.912,40.6941 116.912,42.0274 116.5,44.5C 115.167,44.5 113.833,44.5 112.5,44.5C 112.433,43.0413 112.766,41.7079 113.5,40.5 Z"/></g>
<g><path style="opacity:1" fill="#554f57" d="M 84.5,64.5 C 84.5,65.8333 84.5,67.1667 84.5,68.5C 83.5041,68.4142 82.6708,68.7476 82,69.5C 81.2985,72.3272 80.2985,74.9938 79,77.5C 77.3851,73.5974 74.5518,70.9308 70.5,69.5C 72.1938,67.4457 73.3605,65.1123 74,62.5C 74.4995,56.1754 74.6662,49.8421 74.5,43.5C 76.5,43.8333 78.5,44.1667 80.5,44.5C 81.311,51.4114 82.6443,58.078 84.5,64.5 Z"/></g>
<g><path style="opacity:1" fill="#5b555d" d="M 96.5,46.5 C 99.1662,46.0658 100.333,47.0658 100,49.5C 96.4034,51.0661 95.2368,50.0661 96.5,46.5 Z"/></g>
<g><path style="opacity:1" fill="#251f1d" d="M 45.5,50.5 C 48.9563,51.5362 49.2896,53.2029 46.5,55.5C 44.2957,54.218 43.9624,52.5514 45.5,50.5 Z"/></g>
<g><path style="opacity:1" fill="#080605" d="M 60.5,50.5 C 62.9118,50.6941 63.9118,52.0274 63.5,54.5C 62.5,54.5 61.5,54.5 60.5,54.5C 60.5,53.1667 60.5,51.8333 60.5,50.5 Z"/></g>
<g><path style="opacity:1" fill="#0e0b0a" d="M 48.5,58.5 C 52.5138,58.3345 56.5138,58.5012 60.5,59C 62.133,66.3711 59.133,69.7044 51.5,69C 47.5814,66.3105 46.5814,62.8105 48.5,58.5 Z"/></g>
<g><path style="opacity:1" fill="#b36565" d="M 50.5,61.5 C 52.8333,61.5 55.1667,61.5 57.5,61.5C 57.5923,65.0714 55.9257,66.2381 52.5,65C 51.1772,64.1841 50.5106,63.0174 50.5,61.5 Z"/></g>
<g><path style="opacity:1" fill="#63b0e6" d="M 35.5,74.5 C 47.8333,75.608 60.1666,75.7746 72.5,75C 73.6872,76.0195 74.6872,77.1861 75.5,78.5C 68.1667,80.1667 60.8333,81.8333 53.5,83.5C 46.8372,82.0341 40.1705,80.7008 33.5,79.5C 33.3915,77.4862 34.0582,75.8195 35.5,74.5 Z"/></g>
<g><path style="opacity:1" fill="#f1eeee" d="M 22.5,80.5 C 32.4501,82.7141 42.4501,84.7141 52.5,86.5C 52.5,98.8333 52.5,111.167 52.5,123.5C 42.6193,121.26 32.786,118.926 23,116.5C 21.5875,111.468 22.5875,107.135 26,103.5C 26.6667,98.8333 26.6667,94.1667 26,89.5C 22.9553,87.2807 21.7886,84.2807 22.5,80.5 Z"/></g>
<g><path style="opacity:0.999" fill="#c6e0e3" d="M 76.5,121.5 C 75.0413,121.433 73.7079,121.766 72.5,122.5C 71.4477,121.47 70.1143,120.803 68.5,120.5C 65.1985,121.38 61.8651,122.046 58.5,122.5C 56.5209,110.88 55.8542,98.8799 56.5,86.5C 66.1952,84.6066 75.8619,82.6066 85.5,80.5C 83.5487,85.5399 82.5487,90.8733 82.5,96.5C 82.6667,99.1667 82.8333,101.833 83,104.5C 83.6667,105.167 84.3333,105.833 85,106.5C 85.4986,110.152 85.6653,113.818 85.5,117.5C 82.7835,117.678 80.1168,118.178 77.5,119C 76.7476,119.671 76.4142,120.504 76.5,121.5 Z"/></g>
<g><path style="opacity:1" fill="#4b5455" d="M 56.5,86.5 C 55.8542,98.8799 56.5209,110.88 58.5,122.5C 57.791,123.404 56.791,123.737 55.5,123.5C 55.1714,110.989 55.5048,98.6554 56.5,86.5 Z"/></g>
<g><path style="opacity:1" fill="#ef4350" d="M 15.5,89.5 C 17.7925,89.2436 19.9592,89.5769 22,90.5C 22.7961,94.7548 22.6295,98.9215 21.5,103C 13.9105,103.729 11.0772,100.229 13,92.5C 14.045,91.6266 14.8783,90.6266 15.5,89.5 Z"/></g>
<g><path style="opacity:1" fill="#191919" d="M 30.5,89.5 C 35.4279,90.8216 40.4279,91.8216 45.5,92.5C 45.5,93.5 45.5,94.5 45.5,95.5C 41.1234,95.4225 36.7901,94.9225 32.5,94C 29.715,93.2742 29.0484,91.7742 30.5,89.5 Z"/></g>
<g><path style="opacity:1" fill="#ea414e" d="M 86.5,89.5 C 94.5623,88.9232 97.3957,92.5899 95,100.5C 92.5686,103.518 89.5686,104.185 86,102.5C 85.2316,98.0804 85.3982,93.7471 86.5,89.5 Z"/></g>
<g><path style="opacity:1" fill="#131313" d="M 30.5,102.5 C 35.1421,103.395 39.8087,104.228 44.5,105C 45.3366,106.011 45.67,107.178 45.5,108.5C 40.5,107.833 35.5,107.167 30.5,106.5C 30.5,105.167 30.5,103.833 30.5,102.5 Z"/></g>
<g><path style="opacity:1" fill="#ac1f2a" d="M 96.5,104.5 C 97.1532,107.058 96.1532,109.225 93.5,111C 92.2068,111.49 90.8734,111.657 89.5,111.5C 89.5,109.833 89.5,108.167 89.5,106.5C 92.2282,106.829 94.5615,106.163 96.5,104.5 Z"/></g>
<g><path style="opacity:1" fill="#ac1f2a" d="M 10.5,103.5 C 12.5452,105.984 15.2118,106.984 18.5,106.5C 18.5,108.167 18.5,109.833 18.5,111.5C 13.6305,111.129 10.9638,108.462 10.5,103.5 Z"/></g>
</svg>
