<?xml version="1.0" encoding="UTF-8"?>
<!DOCTYPE svg PUBLIC "-//W3C//DTD SVG 1.1//EN" "http://www.w3.org/Graphics/SVG/1.1/DTD/svg11.dtd">
<svg xmlns="http://www.w3.org/2000/svg" version="1.1" width="128px" height="128px" style="shape-rendering:geometricPrecision; text-rendering:geometricPrecision; image-rendering:optimizeQuality; fill-rule:evenodd; clip-rule:evenodd" xmlns:xlink="http://www.w3.org/1999/xlink">
<g><path style="opacity:0.781" fill="#000000" d="M 53.5,-0.5 C 56.1667,-0.5 58.8333,-0.5 61.5,-0.5C 62.8333,2.16667 64.1667,2.16667 65.5,-0.5C 68.1667,-0.5 70.8333,-0.5 73.5,-0.5C 76.6113,1.68565 78.778,4.68565 80,8.5C 85.7232,23.6127 91.7232,38.6127 98,53.5C 102.214,70.1137 106.214,86.7804 110,103.5C 110.667,104.833 111.333,106.167 112,107.5C 117.397,112.729 122.564,118.062 127.5,123.5C 127.5,124.833 127.5,126.167 127.5,127.5C 126.167,127.5 124.833,127.5 123.5,127.5C 118.671,122.503 114.004,117.336 109.5,112C 100.119,112.554 90.7858,113.721 81.5,115.5C 82.7927,119.384 83.4593,123.384 83.5,127.5C 82.1667,127.5 80.8333,127.5 79.5,127.5C 78.0771,123.733 76.7437,119.899 75.5,116C 70.5504,111.213 66.5504,105.713 63.5,99.5C 60.4496,105.713 56.4496,111.213 51.5,116C 50.2563,119.899 48.9229,123.733 47.5,127.5C 46.1667,127.5 44.8333,127.5 43.5,127.5C 43.5407,123.384 44.2073,119.384 45.5,115.5C 36.2358,113.566 26.9025,112.399 17.5,112C 12.9961,117.336 8.32947,122.503 3.5,127.5C 2.16667,127.5 0.833333,127.5 -0.5,127.5C -0.5,126.167 -0.5,124.833 -0.5,123.5C 4.43612,118.062 9.60279,112.729 15,107.5C 15.6667,106.167 16.3333,104.833 17,103.5C 20.7865,86.7804 24.7865,70.1137 29,53.5C 36,36.5 43,19.5 50,2.5C 51.1451,1.36362 52.3117,0.363622 53.5,-0.5 Z M 55.5,4.5 C 57.1439,4.28649 58.6439,4.61983 60,5.5C 60.6667,8.16667 60.6667,10.8333 60,13.5C 56.8836,26.1959 52.2169,38.1959 46,49.5C 45.4065,55.1753 44.7398,60.842 44,66.5C 42.1775,72.1255 40.6775,77.7922 39.5,83.5C 42.2385,84.0352 44.0718,83.0352 45,80.5C 48.4181,70.0706 50.7514,59.404 52,48.5C 53.0295,45.1247 55.1961,43.9581 58.5,45C 60.0037,46.4907 60.8371,48.324 61,50.5C 61.8238,65.2404 61.1571,79.907 59,94.5C 57.4939,100.675 54.3272,105.842 49.5,110C 43.1461,109.888 36.8128,109.221 30.5,108C 27.2979,107.802 24.2979,106.969 21.5,105.5C 25.7779,89.6116 29.6112,73.6116 33,57.5C 39.2768,42.6127 45.2768,27.6127 51,12.5C 52.2587,9.64408 53.7587,6.97741 55.5,4.5 Z M 67.5,4.5 C 69.7224,4.17798 71.5557,4.84464 73,6.5C 80,23.5 87,40.5 94,57.5C 97.39,73.6192 101.223,89.6192 105.5,105.5C 104.975,106.192 104.308,106.692 103.5,107C 94.8712,108.662 86.2046,109.662 77.5,110C 71.2251,104.617 67.7251,97.7841 67,89.5C 65.7074,76.5204 65.3741,63.5204 66,50.5C 66.1107,46.0466 68.2774,44.2133 72.5,45C 73.7014,45.9025 74.5348,47.0692 75,48.5C 76.2486,59.404 78.5819,70.0706 82,80.5C 82.9282,83.0352 84.7615,84.0352 87.5,83.5C 86.3225,77.7922 84.8225,72.1255 83,66.5C 82.3266,59.7783 81.3266,53.1117 80,46.5C 73.4403,34.9939 68.9403,22.6606 66.5,9.5C 66.5916,7.74218 66.925,6.07551 67.5,4.5 Z M 62.5,22.5 C 63.4972,22.4701 64.1639,22.9701 64.5,24C 66.068,28.8707 67.7347,33.7041 69.5,38.5C 65.5,42.5 61.5,42.5 57.5,38.5C 59.5752,33.2755 61.2419,27.9422 62.5,22.5 Z"/></g>
</svg>
